<?xml version="1.0" encoding="utf-8"?>
<!-- Generator: Adobe Illustrator 25.2.1, SVG Export Plug-In . SVG Version: 6.00 Build 0)  -->
<svg version="1.1" id="Capa_1" xmlns="http://www.w3.org/2000/svg" xmlns:xlink="http://www.w3.org/1999/xlink" x="0px" y="0px"
	 viewBox="0 0 365 90" style="enable-background:new 0 0 365 90;" xml:space="preserve">
<style type="text/css">
	.st0{display:none;}
	.st1{display:inline;fill:#504B8E;}
	.st2{fill:#D8E3FF;}
	.st3{fill:#FFFFFF;}
	.st4{fill:none;}
	.st5{fill:#233A8E;}
	.st6{font-family:'Raleway-SemiBold';}
	.st7{font-size:66px;}
	.st8{fill:#233A8E;stroke:#233A8E;stroke-width:0.5;stroke-miterlimit:10;}
</style>
<g id="Capa_1_1_" class="st0">
	<path class="st1" d="M120.2,59.9c3,0,5.7-0.5,8.3-1.5s4.7-2.5,6.2-4.5c1.6-2,2.4-4.5,2.4-7.5c0-2.1-0.4-3.9-1.2-5.3
		c-0.8-1.4-1.8-2.6-3-3.4c-1.2-0.9-2.5-1.5-3.8-2s-2.5-0.9-3.5-1.1l-7.7-2.2c-1-0.3-1.9-0.6-2.9-1s-1.8-0.9-2.4-1.6s-1-1.5-1-2.6
		s0.4-2.1,1.1-2.9c0.8-0.8,1.8-1.5,3-2s2.6-0.7,4-0.6c2.2,0.1,4.2,0.7,6,2s2.9,3,3.4,5.3l7.8-1.4c-1-4-2.9-7.1-5.9-9.3
		s-6.7-3.3-11.1-3.4c-2.9,0-5.6,0.4-8,1.4c-2.4,0.9-4.3,2.3-5.7,4.2c-1.4,1.9-2.1,4.2-2.1,7c0,1.9,0.3,3.5,0.9,4.8s1.5,2.3,2.4,3.2
		c1,0.8,2.1,1.5,3.2,2s2.2,0.9,3.1,1.1l11.2,3.3c3.2,1,4.8,2.6,4.8,5c0,1.3-0.4,2.5-1.3,3.4c-0.8,0.9-1.9,1.6-3.3,2.1
		s-2.8,0.7-4.3,0.7c-2.6,0-4.9-0.7-6.9-2.1c-2-1.4-3.3-3.4-3.9-5.9l-7.5,1.1c0.5,2.8,1.5,5.3,3.1,7.3s3.7,3.6,6.2,4.7
		C114.2,59.3,117.1,59.9,120.2,59.9z M143.6,59h7.4V43.4L163.3,59h9.6l-13.6-16.2l12.6-16.2h-9L151,42.2V15.8h-7.3L143.6,59z
		 M180.2,73.4h6.8l18-46.8h-7.2L189,49.8l-9.1-23.2h-7.5l13.1,32.2L180.2,73.4z M221.3,59.9c1.9,0,3.6-0.3,5.2-0.9
		c1.5-0.6,2.9-1.4,4-2.4V59h6.4V15.8h-7.3v12.4c-1.1-0.8-2.3-1.4-3.6-1.8s-2.8-0.7-4.4-0.7c-3.1,0-5.7,0.7-8,2.2
		c-2.2,1.5-4,3.5-5.2,6.1s-1.9,5.5-1.9,8.8c0,3.2,0.6,6.2,1.8,8.7c1.2,2.6,2.9,4.6,5.2,6.1S218.3,59.9,221.3,59.9z M222.4,53.4
		c-1.9,0-3.4-0.5-4.7-1.4c-1.2-1-2.1-2.2-2.7-3.8c-0.6-1.6-0.9-3.4-0.9-5.4s0.3-3.7,0.9-5.3c0.6-1.6,1.6-2.9,2.8-3.8
		c1.3-1,2.9-1.4,4.8-1.4c2.8,0,4.8,1,6,2.9c1.3,2,1.9,4.5,1.9,7.7c0,3.1-0.6,5.7-1.9,7.7C227.4,52.4,225.3,53.4,222.4,53.4z
		 M254.4,59.9c2.6,0,4.8-0.4,6.6-1.3c1.8-0.9,3.4-2.2,4.8-4V59h6.3V39.1c0-1.4-0.1-2.7-0.2-3.9s-0.5-2.4-1.1-3.5
		c-1.1-2.1-2.7-3.7-4.9-4.6c-2.2-0.9-4.7-1.4-7.6-1.4c-3.8,0-6.8,0.8-9.1,2.5s-3.8,3.9-4.6,6.6l6.6,2.1c0.5-1.7,1.5-2.8,2.8-3.5
		s2.8-1,4.2-1c2.2,0,3.8,0.4,4.9,1.3c1,0.9,1.6,2.2,1.8,4.1c-2.8,0.4-5.5,0.8-7.9,1.2s-4.5,0.8-6.2,1.4c-2.6,0.9-4.4,2.1-5.6,3.8
		c-1.2,1.6-1.8,3.6-1.8,5.9c0,1.8,0.4,3.4,1.2,4.9s2.1,2.7,3.7,3.6C250.1,59.5,252.1,59.9,254.4,59.9z M255.9,54.1
		c-1.7,0-3-0.4-3.9-1.2s-1.3-1.8-1.3-2.9c0-1.1,0.3-1.9,1-2.6c0.7-0.7,1.7-1.2,2.9-1.7c1.1-0.4,2.5-0.7,4.1-1s3.7-0.6,6.3-1
		c0,0.8-0.1,1.6-0.1,2.5c-0.1,0.9-0.3,1.8-0.6,2.5c-0.2,0.7-0.7,1.5-1.4,2.4c-0.7,0.8-1.6,1.5-2.8,2.1
		C258.9,53.8,257.5,54.1,255.9,54.1z M292.4,59.9c4.2,0,7.4-0.9,9.8-2.8c2.4-1.9,3.6-4.4,3.6-7.7c0-2.5-0.8-4.5-2.4-5.9
		s-4.3-2.7-8.2-3.7c-2.5-0.6-4.4-1.2-5.7-1.6c-1.3-0.4-2.1-0.9-2.5-1.3c-0.4-0.4-0.6-1-0.6-1.6c0-1.1,0.5-1.9,1.6-2.5
		c1-0.6,2.4-0.9,4.1-0.8c1.8,0.1,3.2,0.6,4.2,1.4c1.1,0.8,1.7,1.9,1.9,3.3l7.4-1.3c-0.4-2.9-1.8-5.2-4.3-7c-2.5-1.7-5.6-2.6-9.4-2.6
		c-3.9,0-7,0.9-9.3,2.7c-2.3,1.8-3.5,4.2-3.5,7.3c0,2.4,0.8,4.3,2.4,5.7s4.5,2.6,8.6,3.7c2.4,0.6,4.2,1.2,5.4,1.6
		c1.2,0.4,1.9,0.8,2.3,1.3c0.4,0.4,0.5,1,0.5,1.8c0,1.2-0.5,2.2-1.4,2.9c-1,0.7-2.3,1-4,1c-2,0-3.6-0.5-4.9-1.4s-2.1-2.2-2.5-3.8
		l-7.4,1.1c0.5,3.3,2.1,5.8,4.6,7.6S288.4,59.9,292.4,59.9z M312.3,59h7.3V42.3c0-2.6,0.4-4.6,1.1-6.1c0.8-1.4,1.7-2.4,2.9-3
		c1.2-0.6,2.4-0.8,3.6-0.8c1.7,0,3.1,0.4,4.1,1.1c1,0.7,1.8,1.7,2.2,2.9c0.5,1.1,0.8,2.3,1,3.6c0.2,1.2,0.2,2.4,0.2,3.4V59h7.3V40.9
		c0-0.8-0.1-1.8-0.2-3c-0.1-1.3-0.4-2.6-0.8-4s-1.1-2.7-2-4s-2.2-2.3-3.8-3.1c-1.6-0.8-3.5-1.2-5.9-1.2c-2.3,0-4.4,0.4-6.2,1.2
		c-1.8,0.8-3.2,1.9-4.4,3.3V15.8h-6.4L312.3,59L312.3,59z"/>
	<path class="st1" d="M3.4,12c2.2,0.2,4.4,0.7,6.5,2.1c0.5,0.4,1,0.7,1.5,1.2c0.4,0.5,0.9,1,1.3,1.5c0.4,0.5,0.7,0.9,1,1.4
		c5.5,0.4,10.9,1.1,16.3,2.4c3.8,0.8,7.5,2,11.2,3.4c3.2,1.3,6.5,2.9,9.5,5c-9.1-10-18.9-13.6-23.6-15.2C17,10.3,7.9,10.8,1.4,12
		C2.1,12,2.8,12,3.4,12z"/>
	<path class="st1" d="M29.6,23.8c-3.7-0.9-7.4-1.5-11.1-2.1c-0.9-0.1-1.8-0.3-2.7-0.4c1.1,1.8,2.1,3.6,3,5.5
		c0.2,0.4,0.4,0.8,0.6,1.2c4.9,0.4,9.8,1,14.6,2.1l2.8,0.7l1.4,0.4l1.4,0.4l2.7,0.9c0.9,0.3,1.8,0.7,2.7,1.1c3.6,1.5,7.1,3.4,10.4,6
		c2.7,2.1,5.2,4.7,7.1,7.9c-1.1-2.7-2.5-5.5-4.1-8.2c-2.1-3-4.7-5.4-7.4-7.3c-3.2-2.2-6.7-3.9-10.3-5.1C37,25.7,33.3,24.6,29.6,23.8
		z"/>
	<path class="st1" d="M54.3,41.9c-3.2-2.2-6.6-4-10.1-5.3l-2.6-1l-2.7-0.8l-1.3-0.4l-1.4-0.3l-2.7-0.7c-3.6-0.8-7.3-1.5-11-1.9
		c-0.6-0.1-1.2-0.2-1.8-0.2c0.4,1,0.9,1.8,1.4,2.6c1.3,1.9,3,3.3,4.8,4.2c0.9,0.5,1.9,0.8,2.9,1.1l3.2,0.9l12.6,3.7l6.3,1.9
		c2.2,0.8,4.2,2.1,6.1,3.8c3.6,3.2,6.3,7.5,8.6,12.1c-0.8-3.9-2.2-7.5-4-10.7C60.5,47,57.5,44.2,54.3,41.9z"/>
</g>
<g id="Capa_3">
</g>
<g id="Capa_2_1_">
	<g>
		<path class="st2" d="M52.1,25.1c0,0.1,0.1,0.4,0,0.7c-0.1,0.3-0.4,0.5-0.4,0.6v0.7h0.8l0.8-0.2l0.2-0.6l-0.2-0.6l-0.2-0.4L52.7,25
			h-0.2C52.3,25,52.2,25,52.1,25.1z"/>
		<path class="st2" d="M50.1,25.1c0,0.1-0.1,0.4,0,0.7c0.1,0.4,0.4,0.5,0.5,0.5V27h-0.8L49,26.8l-0.2-0.6l0.2-0.6l0.2-0.4l0.5-0.3
			h0.2C50,25,50.1,25.1,50.1,25.1z"/>
	</g>
	<path class="st3" d="M52.4,25.8"/>
	<g>
		<rect x="96.1" y="0.1" class="st4" width="274.9" height="89.9"/>
		<text transform="matrix(1 0 0 1 118.0001 69.1551)" class="st5 st6 st7">RIZER</text>
		<g>
			<circle class="st2" cx="65.6" cy="45" r="36.5"/>
			<g>
				<path class="st8" d="M61.9,39.4l-4-2.4c-0.8-0.5-0.8-1.3-0.8-1.4V25.1c0.4-0.2,0.8-0.6,0.8-1.1c0-0.6-0.5-1.1-1.1-1.1
					s-1.1,0.5-1.1,1.1s0.4,1,0.9,1.1v8c-0.3-0.3-0.6-0.5-0.7-0.5l-3.7-2.1c-0.7-0.4-0.7-1.1-0.7-1.2V26h-0.1
					c0.3-0.1,0.6-0.4,0.6-0.8s-0.4-0.8-0.8-0.8s-0.8,0.4-0.8,0.8s0.2,0.7,0.6,0.8l0,0v3.3c0,0,0,1,1,1.6l3.8,2.1l0,0
					c0,0,0.8,0.3,0.9,1.7V35l0,0v0.6c0,0,0,1.2,1.1,1.9l4,2.5l0,0c0,0,0.9,0.4,0.9,2v9.2c-0.3-0.4-0.6-0.5-0.7-0.6l-3.7-2.1
					c-0.6-0.3-0.7-0.9-0.7-1.1l0,0v-0.1c0-0.1,0-0.3,0-0.4v-6.8c0.3-0.1,0.5-0.4,0.5-0.7c0-0.4-0.4-0.8-0.8-0.8
					c-0.4,0-0.8,0.4-0.8,0.8c0,0.3,0.2,0.6,0.5,0.7v5.5c-0.3-0.3-0.5-0.4-0.6-0.5L52.7,43C52,42.6,52,41.9,52,41.8V37
					c0.3-0.1,0.6-0.4,0.6-0.8c0-0.4-0.4-0.8-0.8-0.8c-0.4,0-0.8,0.4-0.8,0.8c0,0.3,0.2,0.6,0.5,0.7V42c0,0,0,1,1,1.6l3.8,2.1l0,0
					c0,0,0.7,0.3,0.8,1.3v0.4c0,0,0,1,1,1.6l3.8,2.1l0,0c0,0,0.8,0.3,0.9,1.7V53v13.7c0,0,0,0.7-0.7,1.2l-4.1,2
					c-0.2,0.1-1.1,0.5-1.2,2c-0.4,0.1-0.6,0.4-0.6,0.8s0.4,0.8,0.8,0.8c0.4,0,0.8-0.4,0.8-0.8c0-0.3-0.2-0.6-0.4-0.7
					c0.1-1.2,0.8-1.5,0.9-1.5l0,0l3.8-2.1c1-0.6,1-1.6,1-1.6V42C63.1,40.1,62,39.5,61.9,39.4z M50.7,25.4c0-0.3,0.2-0.5,0.5-0.5
					s0.5,0.2,0.5,0.5s-0.2,0.5-0.5,0.5S50.7,25.7,50.7,25.4z M56.1,24.1c0-0.4,0.3-0.7,0.7-0.7s0.7,0.3,0.7,0.7s-0.3,0.7-0.7,0.7
					C56.4,24.7,56.1,24.4,56.1,24.1z M51,36.2c0-0.3,0.2-0.5,0.5-0.5s0.5,0.2,0.5,0.5s-0.2,0.5-0.5,0.5S51,36.5,51,36.2z M56.6,39.5
					c0-0.3,0.2-0.5,0.5-0.5s0.5,0.2,0.5,0.5S57.4,40,57.1,40C56.9,40,56.6,39.8,56.6,39.5z M57.5,72.7c0,0.3-0.2,0.5-0.5,0.5
					s-0.5-0.2-0.5-0.5s0.2-0.5,0.5-0.5S57.5,72.4,57.5,72.7z"/>
				<path class="st8" d="M69.6,40.5L69.6,40.5l4-2.5c1.1-0.7,1.1-1.9,1.1-1.9v-0.6l0,0v-0.1c0-1.4,0.8-1.7,0.9-1.7l0,0l3.8-2.1
					c1-0.6,1-1.6,1-1.6v-3.3c0.3-0.1,0.5-0.4,0.5-0.7c0-0.4-0.4-0.8-0.8-0.8s-0.8,0.4-0.8,0.8s0.3,0.7,0.6,0.8V30c0,0,0,0.7-0.7,1.2
					l-3.7,2.1c-0.1,0-0.4,0.2-0.7,0.5v-8c0.5-0.1,0.9-0.6,0.9-1.1c0-0.6-0.5-1.1-1.1-1.1s-1.1,0.5-1.1,1.1c0,0.5,0.3,0.9,0.8,1.1
					v10.4c0,0,0,0.9-0.8,1.4l-3.9,2.5c-0.2,0.1-1.2,0.6-1.3,2.6l0.1,24.7c0,0,0,1,1,1.6l3.8,2.1l0,0c0,0,0.8,0.3,0.9,1.6
					c-0.3,0.1-0.5,0.4-0.5,0.7c0,0.4,0.4,0.8,0.8,0.8c0.4,0,0.8-0.4,0.8-0.8s-0.2-0.7-0.6-0.8c-0.1-1.5-1-2-1.2-2.1l-3.7-2.1
					C69,68,69,67.3,69,67.2V53.5v-0.1c0-1.4,0.8-1.7,0.9-1.7l0,0l3.8-2.1c1-0.6,1-1.6,1-1.6v-0.4c0.1-1,0.8-1.3,0.8-1.3l0,0l3.8-2.1
					c1-0.6,1-1.6,1-1.6v-5.1c0.3-0.1,0.6-0.4,0.6-0.8c0-0.4-0.4-0.8-0.8-0.8s-0.8,0.4-0.8,0.8c0,0.3,0.2,0.6,0.5,0.7v5.1
					c0,0,0,0.7-0.7,1.2L75,45.8c-0.1,0-0.4,0.2-0.6,0.5v-5.5c0.3-0.1,0.5-0.4,0.5-0.7c0-0.4-0.4-0.8-0.8-0.8c-0.4,0-0.8,0.4-0.8,0.8
					c0,0.4,0.2,0.6,0.5,0.8v6.7c0,0.1,0,0.3,0,0.4l0,0l0,0c0,0.2-0.1,0.7-0.7,1.1l-3.7,2.1c-0.1,0-0.4,0.2-0.7,0.6v-9.2
					C68.7,40.9,69.6,40.5,69.6,40.5z M79.5,26c0-0.3,0.2-0.5,0.5-0.5s0.5,0.2,0.5,0.5s-0.2,0.5-0.5,0.5C79.7,26.4,79.5,26.2,79.5,26
					z M73.7,24.6c0-0.4,0.3-0.7,0.7-0.7s0.7,0.3,0.7,0.7s-0.3,0.7-0.7,0.7S73.7,25,73.7,24.6z M74.6,73.2c0,0.3-0.2,0.5-0.5,0.5
					s-0.5-0.2-0.5-0.5s0.2-0.5,0.5-0.5S74.6,73,74.6,73.2z M79.3,36.7c0-0.3,0.2-0.5,0.5-0.5s0.5,0.2,0.5,0.5s-0.2,0.5-0.5,0.5
					C79.5,37.1,79.3,36.9,79.3,36.7z M73.6,40c0-0.3,0.2-0.5,0.5-0.5s0.5,0.2,0.5,0.5s-0.2,0.5-0.5,0.5S73.6,40.3,73.6,40z"/>
				<path class="st8" d="M66,73.2V35.5c0.2-0.8,0.6-0.9,0.7-1l0,0l3.1-1.7c0.8-0.5,0.8-1.3,0.8-1.3v-2.4c0.4-0.1,0.7-0.5,0.7-0.9
					c0-0.5-0.4-1-1-1c-0.5,0-1,0.4-1,1c0,0.5,0.3,0.9,0.8,0.9v2.3c0,0,0,0.6-0.6,0.9l-3,1.7c-0.1,0-0.3,0.1-0.5,0.4V19.1
					c0.4-0.2,0.7-0.6,0.7-1.1c0-0.6-0.5-1.1-1.1-1.1c-0.6,0-1.1,0.5-1.1,1.1s0.4,1,0.9,1.1v15.2c-0.2-0.3-0.4-0.4-0.5-0.4l-3-1.7
					c-0.6-0.3-0.6-0.9-0.6-0.9V29c0.4-0.1,0.8-0.5,0.8-0.9c0-0.5-0.4-1-1-1c-0.5,0-1,0.4-1,1c0,0.4,0.3,0.8,0.7,0.9v2.4
					c0,0,0,0.9,0.8,1.3l3.1,1.7l0,0c0,0,0.6,0.2,0.7,1.1v37.6c-0.5,0.1-0.9,0.6-0.9,1.1c0,0.6,0.5,1.1,1.1,1.1
					c0.6,0,1.1-0.5,1.1-1.1C66.8,73.8,66.4,73.3,66,73.2z M69.6,28.2c0-0.3,0.3-0.6,0.6-0.6s0.6,0.3,0.6,0.6s-0.3,0.6-0.6,0.6
					S69.6,28.6,69.6,28.2z M60.4,28.2c0-0.3,0.3-0.6,0.6-0.6s0.6,0.3,0.6,0.6c0,0.3-0.3,0.6-0.6,0.6S60.4,28.6,60.4,28.2z
					 M64.9,18.2c0-0.4,0.3-0.7,0.7-0.7c0.4,0,0.7,0.3,0.7,0.7c0,0.4-0.3,0.7-0.7,0.7C65.2,18.9,64.9,18.6,64.9,18.2z M65.6,75
					c-0.4,0-0.7-0.3-0.7-0.7s0.3-0.7,0.7-0.7s0.7,0.3,0.7,0.7S66,75,65.6,75z"/>
				<g>
					<g>
						<path class="st5" d="M51.1,25.2c-0.1-0.4-0.2-0.7-0.4-1s-0.4-0.6-0.7-0.9c-0.5-0.5-1.2-0.8-1.9-0.9l0.1-0.1
							c0,0.7,0.3,1.5,0.8,2C49.7,24.7,50.4,25.1,51.1,25.2z M51.1,25.2c-0.8,0-1.5-0.3-2.1-0.8s-0.9-1.3-0.9-2.1v-0.2h0.2
							c0.8,0.1,1.5,0.5,2,1c0.3,0.3,0.4,0.6,0.6,0.9C51,24.4,51.1,24.8,51.1,25.2z"/>
					</g>
					<g>
						<path class="st5" d="M51.1,25.2c0.4-0.1,0.7-0.2,1-0.3c0.3-0.2,0.6-0.4,0.9-0.6c0.5-0.5,0.9-1.1,1.1-1.8l0.1,0.2
							c-0.7,0-1.5,0.2-2,0.7C51.7,23.7,51.3,24.4,51.1,25.2z M51.1,25.2c0.1-0.8,0.4-1.5,1-2.1c0.6-0.5,1.4-0.8,2.2-0.8h0.2v0.1
							c-0.2,0.7-0.6,1.4-1.2,1.9c-0.3,0.2-0.7,0.4-1,0.6C51.9,25.1,51.5,25.1,51.1,25.2z"/>
					</g>
					<g>
						<path class="st5" d="M48.6,22.7c0.4,0.8,0.9,1.4,1.6,2C49.3,24.5,48.7,23.6,48.6,22.7z"/>
					</g>
					<g>
						<path class="st5" d="M53.8,22.9c-0.2,0.9-0.9,1.7-1.8,1.8C52.7,24.2,53.3,23.6,53.8,22.9z"/>
					</g>
				</g>
				<g>
					<g>
						<path class="st5" d="M51.4,35.8c-0.1-0.4-0.2-0.7-0.4-1s-0.4-0.6-0.7-0.9c-0.5-0.5-1.2-0.8-1.9-0.9l0.1-0.1
							c0,0.7,0.3,1.5,0.8,2C49.9,35.3,50.6,35.7,51.4,35.8z M51.4,35.8c-0.8,0-1.5-0.3-2.1-0.8s-0.9-1.3-0.9-2.1v-0.2h0.2
							c0.8,0.1,1.5,0.5,2,1c0.3,0.3,0.4,0.6,0.6,0.9C51.2,35,51.3,35.4,51.4,35.8z"/>
					</g>
					<g>
						<path class="st5" d="M51.4,35.8c0.4-0.1,0.7-0.2,1-0.3c0.3-0.2,0.6-0.4,0.9-0.6c0.5-0.5,0.9-1.1,1.1-1.8l0.1,0.2
							c-0.7,0-1.5,0.2-2,0.7C51.9,34.3,51.5,35,51.4,35.8z M51.4,35.8c0.1-0.8,0.4-1.5,1-2.1c0.6-0.5,1.4-0.8,2.2-0.8h0.2V33
							c-0.2,0.7-0.6,1.4-1.2,1.9c-0.3,0.2-0.7,0.4-1,0.6C52.1,35.7,51.8,35.8,51.4,35.8z"/>
					</g>
					<g>
						<path class="st5" d="M48.8,33.4c0.4,0.8,0.9,1.4,1.6,2C49.6,35.1,48.9,34.2,48.8,33.4z"/>
					</g>
					<g>
						<path class="st5" d="M54.1,33.5c-0.2,0.9-0.9,1.7-1.8,1.8C53,34.8,53.6,34.2,54.1,33.5z"/>
					</g>
				</g>
				<g>
					<g>
						<path class="st5" d="M65.6,17.5c-0.1-0.4-0.2-0.7-0.4-1s-0.4-0.6-0.7-0.9c-0.5-0.5-1.2-0.8-1.9-0.9l0.1-0.1
							c0,0.7,0.3,1.5,0.8,2C64.1,17.1,64.8,17.4,65.6,17.5z M65.6,17.5c-0.8,0-1.5-0.3-2.1-0.8s-0.9-1.3-0.9-2.1v-0.2h0.2
							c0.8,0.1,1.5,0.5,2,1c0.3,0.3,0.4,0.6,0.6,0.9C65.4,16.8,65.5,17.2,65.6,17.5z"/>
					</g>
					<g>
						<path class="st5" d="M65.6,17.5c0.4-0.1,0.7-0.2,1-0.3c0.3-0.2,0.6-0.4,0.9-0.6c0.5-0.5,0.9-1.1,1.1-1.8l0.1,0.2
							c-0.7,0-1.5,0.2-2,0.7C66.1,16.1,65.7,16.8,65.6,17.5z M65.6,17.5c0.1-0.8,0.4-1.5,1-2.1c0.6-0.5,1.4-0.8,2.2-0.8H69v0.1
							c-0.2,0.7-0.6,1.4-1.2,1.9c-0.3,0.2-0.7,0.4-1,0.6C66.3,17.4,65.9,17.5,65.6,17.5z"/>
					</g>
					<g>
						<path class="st5" d="M63,15.1c0.4,0.8,0.9,1.4,1.6,2C63.8,16.8,63.1,16,63,15.1z"/>
					</g>
					<g>
						<path class="st5" d="M68.2,15.2c-0.2,0.9-0.9,1.7-1.8,1.8C67.2,16.6,67.7,16,68.2,15.2z"/>
					</g>
				</g>
				<g>
					<g>
						<path class="st5" d="M74.4,23.7c-0.1-0.4-0.2-0.7-0.4-1s-0.4-0.6-0.7-0.9c-0.5-0.5-1.2-0.8-1.9-0.9l0.1-0.1
							c0,0.7,0.3,1.5,0.8,2C72.9,23.2,73.6,23.6,74.4,23.7z M74.4,23.7c-0.8,0-1.5-0.3-2.1-0.8s-0.9-1.3-0.9-2.1v-0.2h0.2
							c0.8,0.1,1.5,0.5,2,1c0.3,0.3,0.4,0.6,0.6,0.9C74.2,23,74.3,23.3,74.4,23.7z"/>
					</g>
					<g>
						<path class="st5" d="M74.4,23.7c0.4-0.1,0.7-0.2,1-0.3c0.3-0.2,0.6-0.4,0.9-0.6c0.5-0.5,0.9-1.1,1.1-1.8l0.1,0.2
							c-0.7,0-1.5,0.2-2,0.7C74.9,22.3,74.5,22.9,74.4,23.7z M74.4,23.7c0.1-0.8,0.4-1.5,1-2.1c0.6-0.5,1.4-0.8,2.2-0.8h0.2v0.1
							c-0.2,0.7-0.6,1.4-1.2,1.9c-0.3,0.2-0.7,0.4-1,0.6C75.1,23.6,74.7,23.7,74.4,23.7z"/>
					</g>
					<g>
						<path class="st5" d="M71.8,21.3c0.4,0.8,0.9,1.4,1.6,2C72.6,23,71.9,22.2,71.8,21.3z"/>
					</g>
					<g>
						<path class="st5" d="M77,21.4c-0.2,0.9-0.9,1.7-1.8,1.8C75.9,22.7,76.5,22.2,77,21.4z"/>
					</g>
				</g>
				<g>
					<g>
						<path class="st5" d="M79.8,36.4c-0.1-0.4-0.2-0.7-0.4-1c-0.2-0.3-0.4-0.6-0.7-0.9c-0.5-0.5-1.2-0.8-1.9-0.9l0.1-0.1
							c0,0.7,0.3,1.5,0.8,2C78.3,36,79,36.3,79.8,36.4z M79.8,36.4c-0.8,0-1.5-0.3-2.1-0.8s-0.9-1.3-0.9-2.1v-0.2H77
							c0.8,0.1,1.5,0.5,2,1c0.3,0.3,0.4,0.6,0.6,0.9C79.6,35.7,79.7,36,79.8,36.4z"/>
					</g>
					<g>
						<path class="st5" d="M79.8,36.4c0.4-0.1,0.7-0.2,1-0.3c0.3-0.2,0.6-0.4,0.9-0.6c0.5-0.5,0.9-1.1,1.1-1.8l0.1,0.2
							c-0.7,0-1.5,0.2-2,0.7C80.3,35,79.9,35.7,79.8,36.4z M79.8,36.4c0.1-0.8,0.4-1.5,1-2.1c0.6-0.5,1.4-0.8,2.2-0.8h0.2v0.1
							C83,34.3,82.6,35,82,35.5c-0.3,0.2-0.7,0.4-1,0.6C80.5,36.3,80.2,36.4,79.8,36.4z"/>
					</g>
					<g>
						<path class="st5" d="M77.2,34c0.4,0.8,0.9,1.4,1.6,2C78,35.7,77.3,34.9,77.2,34z"/>
					</g>
					<g>
						<path class="st5" d="M82.5,34.1c-0.2,0.9-0.9,1.7-1.8,1.8C81.4,35.4,82,34.9,82.5,34.1z"/>
					</g>
				</g>
			</g>
		</g>
	</g>
</g>
</svg>
