<?xml version="1.0" encoding="utf-8"?>
<!-- Generator: Adobe Illustrator 25.2.1, SVG Export Plug-In . SVG Version: 6.00 Build 0)  -->
<svg version="1.1" id="Capa_1" xmlns="http://www.w3.org/2000/svg" xmlns:xlink="http://www.w3.org/1999/xlink" x="0px" y="0px"
	 viewBox="0 0 365 90" style="enable-background:new 0 0 365 90;" xml:space="preserve">
<style type="text/css">
	.st0{display:none;}
	.st1{display:inline;fill:#504B8E;}
	.st2{display:inline;fill:#D8E3FF;}
	.st3{display:inline;fill:#231F20;}
	.st4{fill:none;}
	.st5{fill:#233A8E;}
	.st6{font-family:'Raleway-SemiBold';}
	.st7{font-size:66px;}
	.st8{fill:#D8E3FF;}
	.st9{fill:#FFFFFF;}
	.st10{fill:#233A8E;stroke:#233A8E;stroke-width:0.5;stroke-miterlimit:10;}
</style>
<g id="Capa_1_1_" class="st0">
	<path class="st1" d="M137.9,54.4c0,2.2-0.5,4.2-1.6,6s-2.7,3.3-4.8,4.4c-2.1,1.1-4.7,1.6-7.7,1.6s-5.7-0.5-8-1.5
		c-2.4-1-4.3-2.5-5.7-4.4c-1.4-1.9-2.2-4.2-2.4-6.7h9c0.2,1.7,0.9,3.2,2,4.3c1.2,1.1,2.8,1.7,4.7,1.7c1.8,0,3.1-0.5,4-1.4
		c1-1,1.4-2.2,1.4-3.7c0-1.3-0.4-2.4-1.1-3.2c-0.8-0.9-1.7-1.6-2.9-2.1c-1.2-0.5-2.8-1.1-4.8-1.8c-2.6-0.9-4.8-1.7-6.5-2.6
		c-1.7-0.9-3.1-2.1-4.3-3.8c-1.2-1.6-1.7-3.8-1.7-6.4c0-3.6,1.3-6.5,3.9-8.6s6.1-3.2,10.4-3.2c4.5,0,8,1.1,10.7,3.2
		c2.7,2.2,4.2,5,4.6,8.6H128c-0.2-1.5-0.9-2.8-1.9-3.7c-1-1-2.5-1.5-4.3-1.5c-1.6,0-2.8,0.4-3.8,1.3c-1,0.8-1.4,2-1.4,3.5
		c0,1.2,0.4,2.3,1.1,3.1c0.8,0.8,1.7,1.5,2.8,2c1.2,0.5,2.7,1.1,4.7,1.7c2.7,1,4.9,1.9,6.6,2.7s3.2,2.1,4.4,3.8
		S137.9,51.7,137.9,54.4z M163.6,66l-11-14.5V66h-8.5V21.6h8.5v25l10.9-13.8h10l-14,16.6L173.9,66H163.6z M183.7,32.8l9.1,22.6
		l8.4-22.6h9.3l-20.3,49.1h-9.4l7.5-16.8l-14-32.3C174.3,32.8,183.7,32.8,183.7,32.8z M227.5,32.3c2.8,0,5.2,0.7,7.1,2
		c2,1.3,3.4,3.1,4.3,5.3v-18h8.4V66H239v-7c-0.9,2.2-2.3,4-4.3,5.4c-2,1.3-4.3,2-7.1,2s-5.3-0.7-7.6-2c-2.2-1.4-4-3.3-5.3-5.9
		c-1.2-2.6-1.9-5.6-1.9-9.1s0.6-6.5,1.9-9.1c1.3-2.6,3-4.6,5.3-5.9C222.2,33,224.7,32.3,227.5,32.3z M230.1,39.7
		c-2.6,0-4.8,0.9-6.4,2.6c-1.6,1.7-2.4,4.1-2.4,7.1s0.8,5.4,2.4,7.1c1.6,1.7,3.7,2.5,6.4,2.5c2.6,0,4.7-0.9,6.3-2.6
		c1.7-1.8,2.5-4.1,2.5-7c0-3-0.8-5.3-2.5-7C234.8,40.6,232.7,39.7,230.1,39.7z M268.1,32.3c2.8,0,5.2,0.7,7.2,2s3.4,3.1,4.3,5.3
		v-6.9h8.4V66h-8.4v-7c-0.8,2.2-2.3,4-4.3,5.4c-2,1.3-4.4,2-7.2,2c-2.8,0-5.3-0.7-7.6-2c-2.2-1.4-4-3.3-5.3-5.9
		c-1.2-2.6-1.9-5.6-1.9-9.1s0.6-6.5,1.9-9.1c1.3-2.6,3-4.6,5.3-5.9S265.3,32.3,268.1,32.3z M270.7,39.7c-2.6,0-4.8,0.9-6.4,2.6
		c-1.6,1.7-2.4,4.1-2.4,7.1s0.8,5.4,2.4,7.1c1.6,1.7,3.7,2.5,6.4,2.5c2.6,0,4.7-0.9,6.3-2.6c1.7-1.8,2.5-4.1,2.5-7
		c0-3-0.8-5.3-2.5-7C275.4,40.6,273.3,39.7,270.7,39.7z M307,32.3c4,0,7.3,1,9.7,3.1c2.4,2,4,4.8,4.6,8.2h-7.9
		c-0.3-1.6-1-2.9-2.2-3.8c-1.1-1-2.6-1.4-4.4-1.4c-1.4,0-2.6,0.3-3.4,1s-1.2,1.6-1.2,2.8c0,0.9,0.3,1.7,1,2.2c0.6,0.6,1.4,1,2.4,1.3
		s2.3,0.7,4.1,1.1c2.5,0.6,4.6,1.2,6.1,1.8c1.6,0.6,3,1.6,4.1,2.9c1.2,1.3,1.7,3.1,1.7,5.4c0,2.8-1.1,5.1-3.4,6.9
		c-2.2,1.8-5.2,2.6-8.9,2.6c-4.3,0-7.8-1-10.4-2.9c-2.6-2-4.2-4.7-4.7-8.3h8.1c0.2,1.6,0.9,2.9,2.2,3.9c1.2,0.9,2.9,1.4,4.9,1.4
		c1.4,0,2.5-0.3,3.3-1s1.1-1.6,1.1-2.8c0-1-0.3-1.7-1-2.3c-0.6-0.6-1.5-1.1-2.5-1.4c-1-0.3-2.3-0.7-4.1-1.1
		c-2.5-0.6-4.5-1.1-6.1-1.7c-1.5-0.6-2.8-1.5-4-2.8c-1.1-1.3-1.6-3-1.6-5.3c0-2.9,1.1-5.2,3.3-7S303.2,32.3,307,32.3z M347.8,32.3
		c3.8,0,6.9,1.3,9.2,3.8s3.4,6.1,3.4,10.6V66H352V47.6c0-2.6-0.7-4.7-2-6.1c-1.4-1.5-3.2-2.2-5.6-2.2s-4.3,0.8-5.8,2.3
		c-1.4,1.6-2.2,3.8-2.2,6.7V66H328V21.6h8.5v17.8c0.9-2.2,2.3-4,4.3-5.2C342.9,32.9,345.2,32.3,347.8,32.3z"/>
	<circle class="st2" cx="53.5" cy="36.5" r="36.5"/>
	<path class="st3" d="M3.4,12c2.2,0.2,4.4,0.7,6.5,2.1c0.5,0.4,1,0.7,1.5,1.2c0.4,0.5,0.9,1,1.3,1.5c0.4,0.5,0.7,0.9,1,1.4
		c5.5,0.4,10.9,1.1,16.3,2.4c3.8,0.8,7.5,2,11.2,3.4c3.2,1.3,6.5,2.9,9.5,5c-9.1-10-18.9-13.6-23.6-15.2C17,10.3,7.9,10.8,1.4,12
		C2.1,12,2.8,12,3.4,12z"/>
	<path class="st3" d="M29.6,23.8c-3.7-0.9-7.4-1.5-11.1-2.1c-0.9-0.1-1.8-0.3-2.7-0.4c1.1,1.8,2.1,3.6,3,5.5
		c0.2,0.4,0.4,0.8,0.6,1.2c4.9,0.4,9.8,1,14.6,2.1l2.8,0.7l1.4,0.4l1.4,0.4l2.7,0.9c0.9,0.3,1.8,0.7,2.7,1.1c3.6,1.5,7.1,3.4,10.4,6
		c2.7,2.1,5.2,4.7,7.1,7.9c-1.1-2.7-2.5-5.5-4.1-8.2c-2.1-3-4.7-5.4-7.4-7.3c-3.2-2.2-6.7-3.9-10.3-5.1C37,25.7,33.3,24.6,29.6,23.8
		z"/>
	<path class="st3" d="M54.3,41.9c-3.2-2.2-6.6-4-10.1-5.3l-2.6-1l-2.7-0.8l-1.3-0.4l-1.4-0.3l-2.7-0.7c-3.6-0.8-7.3-1.5-11-1.9
		c-0.6-0.1-1.2-0.2-1.8-0.2c0.4,1,0.9,1.8,1.4,2.6c1.3,1.9,3,3.3,4.8,4.2c0.9,0.5,1.9,0.8,2.9,1.1l3.2,0.9l12.6,3.7l6.3,1.9
		c2.2,0.8,4.2,2.1,6.1,3.8c3.6,3.2,6.3,7.5,8.6,12.1c-0.8-3.9-2.2-7.5-4-10.7C60.5,47,57.5,44.2,54.3,41.9z"/>
</g>
<g id="Capa_2_1_">
	<g>
		<rect x="93.6" y="0.1" class="st4" width="274.9" height="89.9"/>
		<text transform="matrix(1 0 0 1 116.5188 69.0401)" class="st5 st6 st7">RIZER</text>
		<circle class="st8" cx="63.1" cy="44.9" r="36.5"/>
		<g>
			<path class="st8" d="M49.6,25c0,0.1,0.1,0.4,0,0.7c-0.1,0.3-0.4,0.5-0.4,0.6V27H50l0.8-0.2l0.2-0.6l-0.2-0.6l-0.2-0.4L50,24.9
				h-0.2C49.9,24.9,49.8,25,49.6,25z"/>
			<path class="st8" d="M47.7,25c0,0.1-0.1,0.4,0,0.7c0.1,0.4,0.4,0.5,0.5,0.5v0.7h-0.8l-0.8-0.2l-0.2-0.6l0.2-0.6l0.2-0.4l0.5-0.3
				h0.2C47.6,25,47.6,25,47.7,25z"/>
		</g>
		<path class="st9" d="M50,25.7"/>
		<g>
			<path class="st10" d="M59.4,39.4l-3.9-2.5c-0.8-0.5-0.8-1.3-0.8-1.4V25.1c0.4-0.2,0.8-0.6,0.8-1.1c0-0.6-0.5-1.1-1.1-1.1
				s-1.1,0.5-1.1,1.1s0.4,1,0.9,1.1v8c-0.3-0.3-0.6-0.5-0.7-0.5l-3.7-2.1c-0.7-0.4-0.7-1.1-0.7-1.2v-3.3H49c0.3-0.1,0.6-0.4,0.6-0.8
				s-0.4-0.8-0.8-0.8c-0.4,0-0.8,0.4-0.8,0.8s0.2,0.7,0.6,0.8l0,0v3.3c0,0,0,1,1,1.6l3.8,2.1l0,0c0,0,0.8,0.3,0.9,1.7v0.1l0,0v0.6
				c0,0,0,1.2,1.1,1.9l4,2.5l0,0c0,0,0.9,0.4,0.9,2v9.2c-0.3-0.4-0.6-0.5-0.7-0.6l-3.7-2.1c-0.6-0.3-0.7-0.9-0.7-1.1l0,0v-0.1
				c0-0.1,0-0.3,0-0.4v-6.8c0.3-0.1,0.5-0.4,0.5-0.7c0-0.4-0.4-0.8-0.8-0.8c-0.4,0-0.8,0.4-0.8,0.8c0,0.3,0.2,0.6,0.5,0.7v5.5
				c-0.3-0.3-0.5-0.4-0.6-0.5l-3.9-1.7c-0.7-0.4-0.7-1.1-0.7-1.2v-5.1c0.3-0.1,0.6-0.4,0.6-0.8c0-0.4-0.4-0.8-0.8-0.8
				c-0.4,0-0.8,0.4-0.8,0.8c0,0.3,0.2,0.6,0.5,0.7V42c0,0,0,1,1,1.6l3.8,2.1l0,0c0,0,0.7,0.3,0.8,1.3v0.4c0,0,0,1,1,1.6l3.8,2.1l0,0
				c0,0,0.8,0.3,0.9,1.7v0.1v13.7c0,0,0,0.7-0.7,1.2l-3.7,2.1c-0.2,0.1-1.1,0.5-1.2,2c-0.4,0.1-0.6,0.4-0.6,0.8s0.4,0.8,0.8,0.8
				c0.4,0,0.8-0.4,0.8-0.8c0-0.3-0.2-0.6-0.4-0.7c0.1-1.2,0.8-1.5,0.9-1.5l0,0l3.8-2.1c1-0.6,1-1.6,1-1.6L60.7,42
				C60.7,40,59.6,39.5,59.4,39.4z M48.2,25.4c0-0.3,0.2-0.5,0.5-0.5s0.5,0.2,0.5,0.5s-0.2,0.5-0.5,0.5S48.2,25.6,48.2,25.4z
				 M53.6,24c0-0.4,0.3-0.7,0.7-0.7S55,23.5,55,24s-0.3,0.7-0.7,0.7S53.6,24.4,53.6,24z M48.6,36.2c0-0.3,0.2-0.5,0.5-0.5
				s0.5,0.2,0.5,0.5s-0.2,0.5-0.5,0.5S48.6,36.4,48.6,36.2z M54.2,39.4c0-0.3,0.2-0.5,0.5-0.5s0.5,0.2,0.5,0.5s-0.2,0.5-0.5,0.5
				S54.2,39.7,54.2,39.4z M55.1,72.5c0,0.3-0.2,0.5-0.5,0.5s-0.5-0.3-0.5-0.5c0-0.3,0.2-0.5,0.5-0.5S55.1,72.2,55.1,72.5z"/>
			<path class="st10" d="M67.2,40.4L67.2,40.4l4-2.5c1.1-0.7,1.1-1.9,1.1-1.9v-0.6l0,0v-0.1c0-1.4,0.8-1.7,0.9-1.7l0,0l3.8-2.1
				c1-0.6,1-1.6,1-1.6v-3.3c0.3-0.1,0.5-0.4,0.5-0.7c0-0.4-0.4-0.8-0.8-0.8s-0.8,0.4-0.8,0.8s0.3,0.7,0.6,0.8v3.2c0,0,0,0.7-0.7,1.2
				l-3.7,2.1c-0.1,0-0.4,0.2-0.7,0.5v-8c0.5-0.1,0.9-0.6,0.9-1.1c0-0.6-0.5-1.1-1.1-1.1s-1.1,0.5-1.1,1.1c0,0.5,0.3,0.9,0.8,1.1V36
				c0,0,0,0.9-0.8,1.4l-3.9,2.5c-0.2,0.1-1.2,0.6-1.3,2.6l0.1,24.7c0,0,0,1,1,1.6l3.8,2.1l0,0c0,0,0.8,0.3,0.9,1.6
				c-0.3,0.1-0.5,0.4-0.5,0.7c0,0.4,0.4,0.8,0.8,0.8c0.4,0,0.8-0.4,0.8-0.8s-0.2-0.7-0.6-0.8c-0.1-1.5-1-2-1.2-2.1l-3.7-2.1
				c-0.7-0.4-0.7-1.1-0.7-1.2V53.2v-0.1c0-1.4,0.8-1.7,0.9-1.7l0,0l3.8-2.1c1-0.6,1-1.6,1-1.6v-0.4c0.1-1,0.8-1.3,0.8-1.3l0,0
				l3.8-2.1c1-0.6,1-1.6,1-1.6v-5.1c0.3-0.1,0.6-0.4,0.6-0.8c0-0.4-0.4-0.8-0.8-0.8c-0.4,0-0.8,0.4-0.8,0.8c0,0.3,0.2,0.6,0.5,0.7
				v5.1c0,0,0,0.7-0.7,1.2l-3.7,2.1c-0.1,0-0.4,0.2-0.6,0.5v-5.5c0.3-0.1,0.5-0.4,0.5-0.7c0-0.4-0.4-0.8-0.8-0.8
				c-0.4,0-0.8,0.4-0.8,0.8c0,0.4,0.2,0.6,0.5,0.8v6.7c0,0.1,0,0.3,0,0.4V48l0,0c0,0.2-0.1,0.7-0.7,1.1l-3.7,2.1
				c-0.1,0-0.4,0.2-0.7,0.6v-9.2C66.2,40.8,67.1,40.5,67.2,40.4z M77.1,25.9c0-0.3,0.2-0.5,0.5-0.5s0.5,0.2,0.5,0.5
				s-0.2,0.5-0.5,0.5S77.1,26.1,77.1,25.9z M71.2,24.5c0-0.4,0.3-0.7,0.7-0.7s0.7,0.3,0.7,0.7c0,0.4-0.3,0.7-0.7,0.7
				S71.2,24.9,71.2,24.5z M72.2,73.1c0,0.3-0.2,0.5-0.5,0.5s-0.5-0.2-0.5-0.5s0.2-0.5,0.5-0.5C72,72.6,72.2,72.8,72.2,73.1z
				 M76.9,36.5c0-0.3,0.2-0.5,0.5-0.5c0.3,0,0.5,0.2,0.5,0.5S77.7,37,77.4,37C77.1,37,76.9,36.9,76.9,36.5z M71.2,40
				c0-0.3,0.2-0.5,0.5-0.5s0.4,0.2,0.4,0.5s-0.2,0.5-0.5,0.5S71.2,40.2,71.2,40z"/>
			<path class="st10" d="M63.5,73V35.3c0.2-0.8,0.6-0.9,0.7-1l0,0l3.1-1.7c0.8-0.5,0.8-1.3,0.8-1.3v-2.4c0.4-0.1,0.7-0.5,0.7-0.9
				c0-0.5-0.4-1-1-1c-0.5,0-1,0.4-1,1c0,0.5,0.3,0.9,0.8,0.9v2.3c0,0,0,0.6-0.6,0.9l-3,1.7c-0.1,0-0.3,0.1-0.5,0.4V19
				c0.4-0.2,0.7-0.6,0.7-1.1c0-0.6-0.5-1.1-1.1-1.1S62,17.2,62,17.9s0.4,1,0.9,1.1v15.2c-0.2-0.3-0.4-0.4-0.5-0.4l-3-1.7
				c-0.6-0.3-0.6-0.9-0.6-0.9v-2.3c0.4-0.1,0.8-0.5,0.8-0.9c0-0.5-0.4-1-1-1c-0.5,0-1,0.4-1,1c0,0.4,0.3,0.8,0.7,0.9v2.4
				c0,0,0,0.9,0.8,1.3l3.1,1.7l0,0c0,0,0.6,0.2,0.7,1.1v37.6C62.4,73,62,73.5,62,74c0,0.6,0.5,1.1,1.1,1.1s1.1-0.5,1.1-1.1
				C64.2,73.6,64,73.2,63.5,73z M67.2,28.2c0-0.3,0.3-0.6,0.6-0.6s0.6,0.3,0.6,0.6s-0.3,0.6-0.6,0.6S67.2,28.5,67.2,28.2z M58,28.1
				c0-0.3,0.3-0.6,0.6-0.6s0.6,0.3,0.6,0.6c0,0.3-0.3,0.6-0.6,0.6S58,28.5,58,28.1z M62.5,18.1c0-0.4,0.3-0.7,0.7-0.7
				s0.7,0.3,0.7,0.7c0,0.4-0.3,0.7-0.7,0.7C62.8,18.8,62.5,18.5,62.5,18.1z M63.2,74.8c-0.4,0-0.7-0.3-0.7-0.7s0.3-0.7,0.7-0.7
				s0.7,0.3,0.7,0.7S63.6,74.8,63.2,74.8z"/>
			<g>
				<g>
					<path class="st5" d="M48.7,25.1c-0.1-0.4-0.2-0.7-0.4-1s-0.4-0.6-0.7-0.9c-0.5-0.5-1.2-0.8-1.9-0.9l0.1-0.1
						c0,0.7,0.3,1.5,0.8,2C47.2,24.7,47.9,25,48.7,25.1z M48.7,25.1c-0.8,0-1.5-0.3-2.1-0.8c-0.6-0.5-0.9-1.3-0.9-2.1V22h0.2
						c0.8,0.1,1.5,0.5,2,1c0.3,0.3,0.4,0.6,0.6,0.9C48.5,24.4,48.6,24.7,48.7,25.1z"/>
				</g>
				<g>
					<path class="st5" d="M48.7,25.1c0.4-0.1,0.7-0.2,1-0.3c0.3-0.2,0.6-0.4,0.9-0.6c0.5-0.5,0.9-1.1,1.1-1.8l0.1,0.2
						c-0.7,0-1.5,0.2-2,0.7C49.2,23.7,48.8,24.4,48.7,25.1z M48.7,25.1c0.1-0.8,0.4-1.5,1-2.1c0.6-0.5,1.4-0.8,2.2-0.8h0.2v0.1
						c-0.2,0.7-0.6,1.4-1.2,1.9c-0.3,0.2-0.7,0.4-1,0.6C49.4,25,49.1,25.1,48.7,25.1z"/>
				</g>
				<g>
					<path class="st5" d="M46.1,22.7c0.4,0.8,0.9,1.4,1.6,2C46.9,24.4,46.2,23.6,46.1,22.7z"/>
				</g>
				<g>
					<path class="st5" d="M51.4,22.8c-0.2,0.9-0.9,1.7-1.8,1.8C50.3,24.1,50.9,23.6,51.4,22.8z"/>
				</g>
			</g>
			<g>
				<g>
					<path class="st5" d="M49,35.7c-0.1-0.4-0.2-0.7-0.4-1s-0.4-0.6-0.7-0.9c-0.5-0.5-1.2-0.8-1.9-0.9l0.1-0.1c0,0.7,0.3,1.5,0.8,2
						C47.5,35.2,48.2,35.5,49,35.7z M49,35.7c-0.8,0-1.5-0.3-2.1-0.8c-0.6-0.5-0.9-1.3-0.9-2.1v-0.2h0.2c0.8,0.1,1.5,0.5,2,1
						c0.3,0.3,0.4,0.6,0.6,0.9C48.8,35,48.9,35.2,49,35.7z"/>
				</g>
				<g>
					<path class="st5" d="M49,35.7c0.4-0.1,0.7-0.2,1-0.3c0.3-0.2,0.6-0.4,0.9-0.6c0.5-0.5,0.9-1.1,1.1-1.8l0.1,0.2
						c-0.7,0-1.5,0.2-2,0.7C49.5,34.2,49.1,35,49,35.7z M49,35.7c0.1-0.8,0.4-1.5,1-2.1c0.6-0.5,1.4-0.8,2.2-0.8h0.2v0.1
						c-0.2,0.7-0.6,1.4-1.2,1.9c-0.3,0.2-0.7,0.4-1,0.6C49.7,35.5,49.3,35.7,49,35.7z"/>
				</g>
				<g>
					<path class="st5" d="M46.4,33.2c0.4,0.8,0.9,1.4,1.6,2C47.2,35,46.5,34.2,46.4,33.2z"/>
				</g>
				<g>
					<path class="st5" d="M51.6,33.4c-0.2,0.9-0.9,1.7-1.8,1.8C50.6,34.7,51.1,34.2,51.6,33.4z"/>
				</g>
			</g>
			<g>
				<g>
					<path class="st5" d="M63.1,17.5c-0.1-0.4-0.2-0.7-0.4-1s-0.4-0.6-0.7-0.9c-0.5-0.5-1.2-0.8-1.9-0.9l0.1-0.1
						c0,0.7,0.3,1.5,0.8,2C61.7,17,62.4,17.4,63.1,17.5z M63.1,17.5c-0.8,0-1.5-0.3-2.1-0.8s-0.9-1.3-0.9-2.1v-0.2h0.2
						c0.8,0.1,1.5,0.5,2,1c0.3,0.3,0.4,0.6,0.6,0.9C63,16.7,63.1,17.1,63.1,17.5z"/>
				</g>
				<g>
					<path class="st5" d="M63.1,17.5c0.4-0.1,0.7-0.2,1-0.3c0.3-0.2,0.6-0.4,0.9-0.6c0.5-0.5,0.9-1.1,1.1-1.8l0.1,0.2
						c-0.7,0-1.5,0.2-2,0.7C63.7,15.9,63.3,16.7,63.1,17.5z M63.1,17.5c0.1-0.8,0.4-1.5,1-2.1c0.6-0.5,1.4-0.8,2.2-0.8h0.2v0.1
						c-0.2,0.7-0.6,1.4-1.2,1.9c-0.3,0.2-0.7,0.4-1,0.6C63.9,17.4,63.5,17.4,63.1,17.5z"/>
				</g>
				<g>
					<path class="st5" d="M60.6,14.9c0.4,0.8,0.9,1.4,1.6,2C61.3,16.8,60.7,15.8,60.6,14.9z"/>
				</g>
				<g>
					<path class="st5" d="M65.8,15.1c-0.2,0.9-0.9,1.7-1.8,1.8C64.7,16.5,65.2,15.8,65.8,15.1z"/>
				</g>
			</g>
			<g>
				<g>
					<path class="st5" d="M71.9,23.6c-0.1-0.4-0.2-0.7-0.4-1c-0.2-0.3-0.4-0.6-0.7-0.9c-0.5-0.5-1.2-0.8-1.9-0.9l0.1-0.1
						c0,0.7,0.3,1.5,0.8,2C70.5,23.2,71.2,23.5,71.9,23.6z M71.9,23.6c-0.8,0-1.5-0.3-2.1-0.8c-0.6-0.5-0.9-1.3-0.9-2.1v-0.2h0.2
						c0.8,0.1,1.5,0.5,2,1c0.3,0.3,0.4,0.6,0.6,0.9C71.8,22.9,71.9,23.2,71.9,23.6z"/>
				</g>
				<g>
					<path class="st5" d="M71.9,23.6c0.4-0.1,0.7-0.2,1-0.3c0.3-0.2,0.6-0.4,0.9-0.6c0.5-0.5,0.9-1.1,1.1-1.8l0.2,0.1
						c-0.7,0-1.5,0.2-2,0.7C72.5,22.2,72.1,22.9,71.9,23.6z M71.9,23.6c0.1-0.8,0.4-1.5,1-2.1c0.6-0.5,1.4-0.8,2.2-0.8h0.2v0.1
						c-0.2,0.7-0.6,1.4-1.2,1.9c-0.3,0.2-0.7,0.4-1,0.6C72.7,23.5,72.2,23.6,71.9,23.6z"/>
				</g>
				<g>
					<path class="st5" d="M69.4,21.2c0.4,0.8,0.9,1.4,1.6,2C70.1,22.9,69.5,22.1,69.4,21.2z"/>
				</g>
				<g>
					<path class="st5" d="M74.6,21.2c-0.2,0.9-0.9,1.7-1.8,1.8C73.5,22.7,74.1,22.1,74.6,21.2z"/>
				</g>
			</g>
			<g>
				<g>
					<path class="st5" d="M77.4,36.2c-0.1-0.4-0.2-0.7-0.4-1c-0.2-0.3-0.4-0.6-0.7-0.9c-0.5-0.5-1.2-0.8-1.9-0.9l0.1-0.1
						c0,0.7,0.3,1.5,0.8,2C75.9,35.9,76.6,36.2,77.4,36.2z M77.4,36.2c-0.8,0-1.5-0.3-2.1-0.8c-0.6-0.5-0.9-1.3-0.9-2.1v-0.2h0.2
						c0.8,0.1,1.5,0.5,2,1c0.3,0.3,0.4,0.6,0.6,0.9C77.2,35.5,77.2,36,77.4,36.2z"/>
				</g>
				<g>
					<path class="st5" d="M77.4,36.2c0.4-0.1,0.7-0.2,1-0.3c0.3-0.2,0.6-0.4,0.9-0.6c0.5-0.5,0.9-1.1,1.1-1.8l0.1,0.2
						c-0.7,0-1.5,0.2-2,0.7C77.9,34.9,77.5,35.5,77.4,36.2z M77.4,36.2c0.1-0.8,0.4-1.5,1-2.1c0.6-0.5,1.4-0.8,2.2-0.8h0.2v0.1
						c-0.2,0.7-0.6,1.4-1.2,1.9c-0.3,0.2-0.7,0.4-1,0.6C78.1,36.2,77.7,36.2,77.4,36.2z"/>
				</g>
				<g>
					<path class="st5" d="M74.8,33.9c0.4,0.8,0.9,1.4,1.6,2C75.6,35.5,74.9,34.8,74.8,33.9z"/>
				</g>
				<g>
					<path class="st5" d="M80,34c-0.2,0.9-0.9,1.7-1.8,1.8C79,35.4,79.5,34.8,80,34z"/>
				</g>
			</g>
		</g>
	</g>
</g>
</svg>
