<?xml version="1.0" encoding="utf-8"?>
<!-- Generator: Adobe Illustrator 25.2.1, SVG Export Plug-In . SVG Version: 6.00 Build 0)  -->
<svg version="1.1" xmlns="http://www.w3.org/2000/svg" xmlns:xlink="http://www.w3.org/1999/xlink" x="0px" y="0px"
	 viewBox="0 0 365 90" style="enable-background:new 0 0 365 90;" xml:space="preserve">
<style type="text/css">
	.st0{display:none;}
	.st1{display:inline;fill:#FFFFFF;}
	.st2{display:inline;fill:#D8E3FF;}
	.st3{display:inline;fill:#504B8E;}
	.st4{fill:none;}
	.st5{fill:#FFFFFF;}
	.st6{font-family:'Raleway-SemiBold';}
	.st7{font-size:66px;}
	.st8{fill:#D8E3FF;}
	.st9{fill:#233A8E;}
</style>
<g id="Capa_2">
</g>
<g id="Capa_1">
	<g id="Capa_1_1_" class="st0">
		<path class="st1" d="M120.2,59.9c3,0,5.7-0.5,8.3-1.5s4.7-2.5,6.2-4.5c1.6-2,2.4-4.5,2.4-7.5c0-2.1-0.4-3.9-1.2-5.3
			c-0.8-1.4-1.8-2.6-3-3.4c-1.2-0.9-2.5-1.5-3.8-2s-2.5-0.9-3.5-1.1l-7.7-2.2c-1-0.3-1.9-0.6-2.9-1s-1.8-0.9-2.4-1.6s-1-1.5-1-2.6
			s0.4-2.1,1.1-2.9c0.8-0.8,1.8-1.5,3-2s2.6-0.7,4-0.6c2.2,0.1,4.2,0.7,6,2s2.9,3,3.4,5.3l7.8-1.4c-1-4-2.9-7.1-5.9-9.3
			s-6.7-3.3-11.1-3.4c-2.9,0-5.6,0.4-8,1.4c-2.4,0.9-4.3,2.3-5.7,4.2c-1.4,1.9-2.1,4.2-2.1,7c0,1.9,0.3,3.5,0.9,4.8s1.5,2.3,2.4,3.2
			c1,0.8,2.1,1.5,3.2,2s2.2,0.9,3.1,1.1l11.2,3.3c3.2,1,4.8,2.6,4.8,5c0,1.3-0.4,2.5-1.3,3.4c-0.8,0.9-1.9,1.6-3.3,2.1
			s-2.8,0.7-4.3,0.7c-2.6,0-4.9-0.7-6.9-2.1c-2-1.4-3.3-3.4-3.9-5.9l-7.5,1.1c0.5,2.8,1.5,5.3,3.1,7.3s3.7,3.6,6.2,4.7
			C114.2,59.3,117.1,59.9,120.2,59.9z M143.6,59h7.4V43.4L163.3,59h9.6l-13.6-16.2l12.6-16.2h-9L151,42.2V15.8h-7.3L143.6,59z
			 M180.2,73.4h6.8l18-46.8h-7.2L189,49.8l-9.1-23.2h-7.5l13.1,32.2L180.2,73.4z M221.3,59.9c1.9,0,3.6-0.3,5.2-0.9
			c1.5-0.6,2.9-1.4,4-2.4V59h6.4V15.8h-7.3v12.4c-1.1-0.8-2.3-1.4-3.6-1.8s-2.8-0.7-4.4-0.7c-3.1,0-5.7,0.7-8,2.2
			c-2.2,1.5-4,3.5-5.2,6.1s-1.9,5.5-1.9,8.8c0,3.2,0.6,6.2,1.8,8.7c1.2,2.6,2.9,4.6,5.2,6.1S218.3,59.9,221.3,59.9z M222.4,53.4
			c-1.9,0-3.4-0.5-4.7-1.4c-1.2-1-2.1-2.2-2.7-3.8c-0.6-1.6-0.9-3.4-0.9-5.4s0.3-3.7,0.9-5.3c0.6-1.6,1.6-2.9,2.8-3.8
			c1.3-1,2.9-1.4,4.8-1.4c2.8,0,4.8,1,6,2.9c1.3,2,1.9,4.5,1.9,7.7c0,3.1-0.6,5.7-1.9,7.7C227.4,52.4,225.3,53.4,222.4,53.4z
			 M254.4,59.9c2.6,0,4.8-0.4,6.6-1.3c1.8-0.9,3.4-2.2,4.8-4V59h6.3V39.1c0-1.4-0.1-2.7-0.2-3.9s-0.5-2.4-1.1-3.5
			c-1.1-2.1-2.7-3.7-4.9-4.6c-2.2-0.9-4.7-1.4-7.6-1.4c-3.8,0-6.8,0.8-9.1,2.5s-3.8,3.9-4.6,6.6l6.6,2.1c0.5-1.7,1.5-2.8,2.8-3.5
			s2.8-1,4.2-1c2.2,0,3.8,0.4,4.9,1.3c1,0.9,1.6,2.2,1.8,4.1c-2.8,0.4-5.5,0.8-7.9,1.2s-4.5,0.8-6.2,1.4c-2.6,0.9-4.4,2.1-5.6,3.8
			c-1.2,1.6-1.8,3.6-1.8,5.9c0,1.8,0.4,3.4,1.2,4.9s2.1,2.7,3.7,3.6C250.1,59.5,252.1,59.9,254.4,59.9z M255.9,54.1
			c-1.7,0-3-0.4-3.9-1.2s-1.3-1.8-1.3-2.9c0-1.1,0.3-1.9,1-2.6c0.7-0.7,1.7-1.2,2.9-1.7c1.1-0.4,2.5-0.7,4.1-1s3.7-0.6,6.3-1
			c0,0.8-0.1,1.6-0.1,2.5c-0.1,0.9-0.3,1.8-0.6,2.5c-0.2,0.7-0.7,1.5-1.4,2.4c-0.7,0.8-1.6,1.5-2.8,2.1
			C258.9,53.8,257.5,54.1,255.9,54.1z M292.4,59.9c4.2,0,7.4-0.9,9.8-2.8c2.4-1.9,3.6-4.4,3.6-7.7c0-2.5-0.8-4.5-2.4-5.9
			s-4.3-2.7-8.2-3.7c-2.5-0.6-4.4-1.2-5.7-1.6c-1.3-0.4-2.1-0.9-2.5-1.3c-0.4-0.4-0.6-1-0.6-1.6c0-1.1,0.5-1.9,1.6-2.5
			c1-0.6,2.4-0.9,4.1-0.8c1.8,0.1,3.2,0.6,4.2,1.4c1.1,0.8,1.7,1.9,1.9,3.3l7.4-1.3c-0.4-2.9-1.8-5.2-4.3-7
			c-2.5-1.7-5.6-2.6-9.4-2.6c-3.9,0-7,0.9-9.3,2.7c-2.3,1.8-3.5,4.2-3.5,7.3c0,2.4,0.8,4.3,2.4,5.7s4.5,2.6,8.6,3.7
			c2.4,0.6,4.2,1.2,5.4,1.6c1.2,0.4,1.9,0.8,2.3,1.3c0.4,0.4,0.5,1,0.5,1.8c0,1.2-0.5,2.2-1.4,2.9c-1,0.7-2.3,1-4,1
			c-2,0-3.6-0.5-4.9-1.4s-2.1-2.2-2.5-3.8l-7.4,1.1c0.5,3.3,2.1,5.8,4.6,7.6S288.4,59.9,292.4,59.9z M312.3,59h7.3V42.3
			c0-2.6,0.4-4.6,1.1-6.1c0.8-1.4,1.7-2.4,2.9-3c1.2-0.6,2.4-0.8,3.6-0.8c1.7,0,3.1,0.4,4.1,1.1c1,0.7,1.8,1.7,2.2,2.9
			c0.5,1.1,0.8,2.3,1,3.6c0.2,1.2,0.2,2.4,0.2,3.4V59h7.3V40.9c0-0.8-0.1-1.8-0.2-3c-0.1-1.3-0.4-2.6-0.8-4s-1.1-2.7-2-4
			s-2.2-2.3-3.8-3.1c-1.6-0.8-3.5-1.2-5.9-1.2c-2.3,0-4.4,0.4-6.2,1.2c-1.8,0.8-3.2,1.9-4.4,3.3V15.8h-6.4L312.3,59L312.3,59z"/>
		<circle class="st2" cx="53.5" cy="36.5" r="36.5"/>
		<path class="st3" d="M3.4,12c2.2,0.2,4.4,0.7,6.5,2.1c0.5,0.4,1,0.7,1.5,1.2c0.4,0.5,0.9,1,1.3,1.5c0.4,0.5,0.7,0.9,1,1.4
			c5.5,0.4,10.9,1.1,16.3,2.4c3.8,0.8,7.5,2,11.2,3.4c3.2,1.3,6.5,2.9,9.5,5c-9.1-10-18.9-13.6-23.6-15.2C17,10.3,7.9,10.8,1.4,12
			C2.1,12,2.8,12,3.4,12z"/>
		<path class="st3" d="M29.6,23.8c-3.7-0.9-7.4-1.5-11.1-2.1c-0.9-0.1-1.8-0.3-2.7-0.4c1.1,1.8,2.1,3.6,3,5.5
			c0.2,0.4,0.4,0.8,0.6,1.2c4.9,0.4,9.8,1,14.6,2.1l2.8,0.7l1.4,0.4l1.4,0.4l2.7,0.9c0.9,0.3,1.8,0.7,2.7,1.1
			c3.6,1.5,7.1,3.4,10.4,6c2.7,2.1,5.2,4.7,7.1,7.9c-1.1-2.7-2.5-5.5-4.1-8.2c-2.1-3-4.7-5.4-7.4-7.3c-3.2-2.2-6.7-3.9-10.3-5.1
			C37,25.7,33.3,24.6,29.6,23.8z"/>
		<path class="st3" d="M54.3,41.9c-3.2-2.2-6.6-4-10.1-5.3l-2.6-1l-2.7-0.8l-1.3-0.4l-1.4-0.3l-2.7-0.7c-3.6-0.8-7.3-1.5-11-1.9
			c-0.6-0.1-1.2-0.2-1.8-0.2c0.4,1,0.9,1.8,1.4,2.6c1.3,1.9,3,3.3,4.8,4.2c0.9,0.5,1.9,0.8,2.9,1.1l3.2,0.9l12.6,3.7l6.3,1.9
			c2.2,0.8,4.2,2.1,6.1,3.8c3.6,3.2,6.3,7.5,8.6,12.1c-0.8-3.9-2.2-7.5-4-10.7C60.5,47,57.5,44.2,54.3,41.9z"/>
	</g>
	<g>
		<g>
			<rect x="90.6" y="0.1" class="st4" width="274.9" height="89.9"/>
			<rect x="90.6" y="0.1" class="st4" width="274.9" height="89.9"/>
			<text transform="matrix(1 0 0 1 112.5183 69.0401)" class="st5 st6 st7">RIZER</text>
		</g>
		<circle class="st8" cx="60.1" cy="44.9" r="36.5"/>
		<g>
			<path class="st8" d="M46.6,25c0,0.1,0.1,0.4,0,0.7c-0.1,0.3-0.4,0.5-0.4,0.6V27H47l0.8-0.2l0.2-0.6l-0.2-0.6l-0.2-0.4L47,24.9
				h-0.2C46.9,24.9,46.8,25,46.6,25z"/>
			<path class="st8" d="M44.7,25c0,0.1-0.1,0.4,0,0.7c0.1,0.4,0.4,0.5,0.5,0.5v0.7h-0.8l-0.8-0.2l-0.2-0.6l0.2-0.6l0.2-0.4l0.5-0.3
				h0.2C44.6,25,44.6,25,44.7,25z"/>
		</g>
		<g>
			<path class="st9" d="M56.4,39.4l-3.9-2.5c-0.8-0.5-0.8-1.3-0.8-1.4V25.1c0.4-0.2,0.8-0.6,0.8-1.1c0-0.6-0.5-1.1-1.1-1.1
				s-1.1,0.5-1.1,1.1s0.4,1,0.9,1.1v8c-0.3-0.3-0.6-0.5-0.7-0.5l-3.7-2.1c-0.7-0.4-0.7-1.1-0.7-1.2V26H46c0.3-0.1,0.6-0.4,0.6-0.8
				s-0.4-0.8-0.8-0.8c-0.4,0-0.8,0.4-0.8,0.8s0.2,0.7,0.6,0.8l0,0v3.3c0,0,0,1,1,1.6l3.8,2.1l0,0c0,0,0.8,0.3,0.9,1.7v0.1l0,0v0.6
				c0,0,0,1.2,1.1,1.9l4,2.5l0,0c0,0,0.9,0.4,0.9,2V51c-0.3-0.4-0.6-0.5-0.7-0.6l-3.7-2.1c-0.6-0.3-0.7-0.9-0.7-1.1l0,0v-0.1
				c0-0.1,0-0.3,0-0.4v-6.8c0.3-0.1,0.5-0.4,0.5-0.7c0-0.4-0.4-0.8-0.8-0.8c-0.4,0-0.8,0.4-0.8,0.8c0,0.3,0.2,0.6,0.5,0.7v5.5
				c-0.3-0.3-0.5-0.4-0.6-0.5l-3.9-1.7c-0.7-0.4-0.7-1.1-0.7-1.2v-5.1c0.3-0.1,0.6-0.4,0.6-0.8c0-0.4-0.4-0.8-0.8-0.8
				c-0.4,0-0.8,0.4-0.8,0.8c0,0.3,0.2,0.6,0.5,0.7V42c0,0,0,1,1,1.6l3.8,2.1l0,0c0,0,0.7,0.3,0.8,1.3v0.4c0,0,0,1,1,1.6l3.8,2.1l0,0
				c0,0,0.8,0.3,0.9,1.7v0.1v13.7c0,0,0,0.7-0.7,1.2l-3.7,2.1c-0.2,0.1-1.1,0.5-1.2,2C51.2,72,51,72.3,51,72.7s0.4,0.8,0.8,0.8
				c0.4,0,0.8-0.4,0.8-0.8c0-0.3-0.2-0.6-0.4-0.7c0.1-1.2,0.8-1.5,0.9-1.5l0,0l3.8-2.1c1-0.6,1-1.6,1-1.6L57.7,42
				C57.7,40,56.6,39.5,56.4,39.4z M45.2,25.4c0-0.3,0.2-0.5,0.5-0.5s0.5,0.2,0.5,0.5s-0.2,0.5-0.5,0.5S45.2,25.6,45.2,25.4z
				 M50.6,24c0-0.4,0.3-0.7,0.7-0.7S52,23.5,52,24s-0.3,0.7-0.7,0.7S50.6,24.4,50.6,24z M45.6,36.2c0-0.3,0.2-0.5,0.5-0.5
				s0.5,0.2,0.5,0.5s-0.2,0.5-0.5,0.5S45.6,36.4,45.6,36.2z M51.2,39.4c0-0.3,0.2-0.5,0.5-0.5s0.5,0.2,0.5,0.5s-0.2,0.5-0.5,0.5
				S51.2,39.7,51.2,39.4z M52.1,72.5c0,0.3-0.2,0.5-0.5,0.5s-0.5-0.3-0.5-0.5c0-0.3,0.2-0.5,0.5-0.5S52.1,72.2,52.1,72.5z"/>
			<path class="st9" d="M64.2,40.4L64.2,40.4l4-2.5c1.1-0.7,1.1-1.9,1.1-1.9v-0.6l0,0v-0.1c0-1.4,0.8-1.7,0.9-1.7l0,0l3.8-2.1
				c1-0.6,1-1.6,1-1.6v-3.3c0.3-0.1,0.5-0.4,0.5-0.7c0-0.4-0.4-0.8-0.8-0.8s-0.8,0.4-0.8,0.8s0.3,0.7,0.6,0.8v3.2c0,0,0,0.7-0.7,1.2
				l-3.7,2.1c-0.1,0-0.4,0.2-0.7,0.5v-8c0.5-0.1,0.9-0.6,0.9-1.1c0-0.6-0.5-1.1-1.1-1.1s-1.1,0.5-1.1,1.1c0,0.5,0.3,0.9,0.8,1.1V36
				c0,0,0,0.9-0.8,1.4l-3.9,2.5C64,40,63,40.5,62.9,42.5L63,67.1c0,0,0,1,1,1.6l3.8,2.1l0,0c0,0,0.8,0.3,0.9,1.6
				c-0.3,0.1-0.5,0.4-0.5,0.7c0,0.4,0.4,0.8,0.8,0.8s0.8-0.4,0.8-0.8s-0.2-0.7-0.6-0.8c-0.1-1.5-1-2-1.2-2.1l-3.7-2.1
				c-0.7-0.4-0.7-1.1-0.7-1.2V53.2v-0.1c0-1.4,0.8-1.7,0.9-1.7l0,0l3.8-2.1c1-0.6,1-1.6,1-1.6v-0.4c0.1-1,0.8-1.3,0.8-1.3l0,0
				l3.8-2.1c1-0.6,1-1.6,1-1.6v-5.1c0.3-0.1,0.6-0.4,0.6-0.8c0-0.4-0.4-0.8-0.8-0.8s-0.8,0.4-0.8,0.8c0,0.3,0.2,0.6,0.5,0.7v5.1
				c0,0,0,0.7-0.7,1.2L70,45.5c-0.1,0-0.4,0.2-0.6,0.5v-5.5c0.3-0.1,0.5-0.4,0.5-0.7c0-0.4-0.4-0.8-0.8-0.8s-0.8,0.4-0.8,0.8
				c0,0.4,0.2,0.6,0.5,0.8v6.7c0,0.1,0,0.3,0,0.4V48l0,0c0,0.2-0.1,0.7-0.7,1.1l-3.7,2.1c-0.1,0-0.4,0.2-0.7,0.6v-9.2
				C63.3,40.8,64.1,40.5,64.2,40.4z M74.1,25.9c0-0.3,0.2-0.5,0.5-0.5s0.5,0.2,0.5,0.5s-0.2,0.5-0.5,0.5S74.1,26.1,74.1,25.9z
				 M68.2,24.5c0-0.4,0.3-0.7,0.7-0.7s0.7,0.3,0.7,0.7c0,0.4-0.3,0.7-0.7,0.7S68.2,24.9,68.2,24.5z M69.2,73.1
				c0,0.3-0.2,0.5-0.5,0.5s-0.5-0.2-0.5-0.5s0.2-0.5,0.5-0.5S69.2,72.8,69.2,73.1z M73.9,36.5c0-0.3,0.2-0.5,0.5-0.5
				s0.5,0.2,0.5,0.5S74.7,37,74.4,37C74.1,37,73.9,36.9,73.9,36.5z M68.2,40c0-0.3,0.2-0.5,0.5-0.5s0.4,0.2,0.4,0.5
				s-0.2,0.5-0.5,0.5S68.2,40.2,68.2,40z"/>
			<path class="st9" d="M60.5,73V35.3c0.2-0.8,0.6-0.9,0.7-1l0,0l3.1-1.7c0.8-0.5,0.8-1.3,0.8-1.3v-2.4c0.4-0.1,0.7-0.5,0.7-0.9
				c0-0.5-0.4-1-1-1c-0.5,0-1,0.4-1,1c0,0.5,0.3,0.9,0.8,0.9v2.3c0,0,0,0.6-0.6,0.9l-3,1.7c-0.1,0-0.3,0.1-0.5,0.4V19
				c0.4-0.2,0.7-0.6,0.7-1.1c0-0.6-0.5-1.1-1.1-1.1S59,17.2,59,17.9s0.4,1,0.9,1.1v15.2c-0.2-0.3-0.4-0.4-0.5-0.4l-3-1.7
				c-0.6-0.3-0.6-0.9-0.6-0.9v-2.3c0.4-0.1,0.8-0.5,0.8-0.9c0-0.5-0.4-1-1-1c-0.5,0-1,0.4-1,1c0,0.4,0.3,0.8,0.7,0.9v2.4
				c0,0,0,0.9,0.8,1.3l3.1,1.7l0,0c0,0,0.6,0.2,0.7,1.1V73c-0.5,0-0.9,0.5-0.9,1c0,0.6,0.5,1.1,1.1,1.1s1.1-0.5,1.1-1.1
				C61.3,73.6,61,73.2,60.5,73z M64.2,28.2c0-0.3,0.3-0.6,0.6-0.6s0.6,0.3,0.6,0.6s-0.3,0.6-0.6,0.6S64.2,28.5,64.2,28.2z M55,28.1
				c0-0.3,0.3-0.6,0.6-0.6s0.6,0.3,0.6,0.6c0,0.3-0.3,0.6-0.6,0.6S55,28.5,55,28.1z M59.5,18.1c0-0.4,0.3-0.7,0.7-0.7
				s0.7,0.3,0.7,0.7c0,0.4-0.3,0.7-0.7,0.7C59.8,18.8,59.5,18.5,59.5,18.1z M60.2,74.8c-0.4,0-0.7-0.3-0.7-0.7s0.3-0.7,0.7-0.7
				s0.7,0.3,0.7,0.7S60.6,74.8,60.2,74.8z"/>
			<g>
				<g>
					<path class="st9" d="M45.7,25.1c-0.1-0.4-0.2-0.7-0.4-1s-0.4-0.6-0.7-0.9c-0.5-0.5-1.2-0.8-1.9-0.9l0.1-0.1
						c0,0.7,0.3,1.5,0.8,2C44.2,24.7,44.9,25,45.7,25.1z M45.7,25.1c-0.8,0-1.5-0.3-2.1-0.8s-0.9-1.3-0.9-2.1V22h0.2
						c0.8,0.1,1.5,0.5,2,1c0.3,0.3,0.4,0.6,0.6,0.9C45.5,24.4,45.6,24.7,45.7,25.1z"/>
				</g>
				<g>
					<path class="st9" d="M45.7,25.1c0.4-0.1,0.7-0.2,1-0.3c0.3-0.2,0.6-0.4,0.9-0.6c0.5-0.5,0.9-1.1,1.1-1.8l0.1,0.2
						c-0.7,0-1.5,0.2-2,0.7C46.2,23.7,45.8,24.4,45.7,25.1z M45.7,25.1c0.1-0.8,0.4-1.5,1-2.1c0.6-0.5,1.4-0.8,2.2-0.8h0.2v0.1
						c-0.2,0.7-0.6,1.4-1.2,1.9c-0.3,0.2-0.7,0.4-1,0.6C46.4,25,46.1,25.1,45.7,25.1z"/>
				</g>
				<g>
					<path class="st9" d="M43.1,22.7c0.4,0.8,0.9,1.4,1.6,2C43.9,24.4,43.2,23.6,43.1,22.7z"/>
				</g>
				<g>
					<path class="st9" d="M48.4,22.8c-0.2,0.9-0.9,1.7-1.8,1.8C47.3,24.1,47.9,23.6,48.4,22.8z"/>
				</g>
			</g>
			<g>
				<g>
					<path class="st9" d="M46,35.7c-0.1-0.4-0.2-0.7-0.4-1s-0.4-0.6-0.7-0.9c-0.5-0.5-1.2-0.8-1.9-0.9l0.1-0.1c0,0.7,0.3,1.5,0.8,2
						C44.5,35.2,45.2,35.5,46,35.7z M46,35.7c-0.8,0-1.5-0.3-2.1-0.8S43,33.6,43,32.8v-0.2h0.2c0.8,0.1,1.5,0.5,2,1
						c0.3,0.3,0.4,0.6,0.6,0.9C45.8,35,45.9,35.2,46,35.7z"/>
				</g>
				<g>
					<path class="st9" d="M46,35.7c0.4-0.1,0.7-0.2,1-0.3c0.3-0.2,0.6-0.4,0.9-0.6c0.5-0.5,0.9-1.1,1.1-1.8l0.1,0.2
						c-0.7,0-1.5,0.2-2,0.7C46.5,34.2,46.1,35,46,35.7z M46,35.7c0.1-0.8,0.4-1.5,1-2.1c0.6-0.5,1.4-0.8,2.2-0.8h0.2v0.1
						c-0.2,0.7-0.6,1.4-1.2,1.9c-0.3,0.2-0.7,0.4-1,0.6C46.7,35.5,46.3,35.7,46,35.7z"/>
				</g>
				<g>
					<path class="st9" d="M43.4,33.2c0.4,0.8,0.9,1.4,1.6,2C44.2,35,43.5,34.2,43.4,33.2z"/>
				</g>
				<g>
					<path class="st9" d="M48.6,33.4c-0.2,0.9-0.9,1.7-1.8,1.8C47.6,34.7,48.1,34.2,48.6,33.4z"/>
				</g>
			</g>
			<g>
				<g>
					<path class="st9" d="M60.1,17.5c-0.1-0.4-0.2-0.7-0.4-1s-0.4-0.6-0.7-0.9c-0.5-0.5-1.2-0.8-1.9-0.9l0.1-0.1
						c0,0.7,0.3,1.5,0.8,2C58.7,17,59.4,17.4,60.1,17.5z M60.1,17.5c-0.8,0-1.5-0.3-2.1-0.8s-0.9-1.3-0.9-2.1v-0.2h0.2
						c0.8,0.1,1.5,0.5,2,1c0.3,0.3,0.4,0.6,0.6,0.9C60,16.7,60.1,17.1,60.1,17.5z"/>
				</g>
				<g>
					<path class="st9" d="M60.1,17.5c0.4-0.1,0.7-0.2,1-0.3c0.3-0.2,0.6-0.4,0.9-0.6c0.5-0.5,0.9-1.1,1.1-1.8l0.1,0.2
						c-0.7,0-1.5,0.2-2,0.7C60.7,15.9,60.3,16.7,60.1,17.5z M60.1,17.5c0.1-0.8,0.4-1.5,1-2.1c0.6-0.5,1.4-0.8,2.2-0.8h0.2v0.1
						c-0.2,0.7-0.6,1.4-1.2,1.9c-0.3,0.2-0.7,0.4-1,0.6C60.9,17.4,60.5,17.4,60.1,17.5z"/>
				</g>
				<g>
					<path class="st9" d="M57.6,14.9c0.4,0.8,0.9,1.4,1.6,2C58.3,16.8,57.7,15.8,57.6,14.9z"/>
				</g>
				<g>
					<path class="st9" d="M62.8,15.1c-0.2,0.9-0.9,1.7-1.8,1.8C61.7,16.5,62.3,15.8,62.8,15.1z"/>
				</g>
			</g>
			<g>
				<g>
					<path class="st9" d="M68.9,23.6c-0.1-0.4-0.2-0.7-0.4-1c-0.2-0.3-0.4-0.6-0.7-0.9c-0.5-0.5-1.2-0.8-1.9-0.9l0.1-0.1
						c0,0.7,0.3,1.5,0.8,2C67.5,23.2,68.2,23.5,68.9,23.6z M68.9,23.6c-0.8,0-1.5-0.3-2.1-0.8s-0.9-1.3-0.9-2.1v-0.2h0.2
						c0.8,0.1,1.5,0.5,2,1c0.3,0.3,0.4,0.6,0.6,0.9C68.8,22.9,68.9,23.2,68.9,23.6z"/>
				</g>
				<g>
					<path class="st9" d="M68.9,23.6c0.4-0.1,0.7-0.2,1-0.3c0.3-0.2,0.6-0.4,0.9-0.6c0.5-0.5,0.9-1.1,1.1-1.8l0.2,0.1
						c-0.7,0-1.5,0.2-2,0.7C69.5,22.2,69.1,22.9,68.9,23.6z M68.9,23.6c0.1-0.8,0.4-1.5,1-2.1c0.6-0.5,1.4-0.8,2.2-0.8h0.2v0.1
						c-0.2,0.7-0.6,1.4-1.2,1.9c-0.3,0.2-0.7,0.4-1,0.6C69.7,23.5,69.2,23.6,68.9,23.6z"/>
				</g>
				<g>
					<path class="st9" d="M66.4,21.2c0.4,0.8,0.9,1.4,1.6,2C67.1,22.9,66.5,22.1,66.4,21.2z"/>
				</g>
				<g>
					<path class="st9" d="M71.6,21.2c-0.2,0.9-0.9,1.7-1.8,1.8C70.5,22.7,71.1,22.1,71.6,21.2z"/>
				</g>
			</g>
			<g>
				<g>
					<path class="st9" d="M74.4,36.2c-0.1-0.4-0.2-0.7-0.4-1c-0.2-0.3-0.4-0.6-0.7-0.9c-0.5-0.5-1.2-0.8-1.9-0.9l0.1-0.1
						c0,0.7,0.3,1.5,0.8,2C72.9,35.9,73.6,36.2,74.4,36.2z M74.4,36.2c-0.8,0-1.5-0.3-2.1-0.8s-0.9-1.3-0.9-2.1v-0.2h0.2
						c0.8,0.1,1.5,0.5,2,1c0.3,0.3,0.4,0.6,0.6,0.9C74.2,35.5,74.2,36,74.4,36.2z"/>
				</g>
				<g>
					<path class="st9" d="M74.4,36.2c0.4-0.1,0.7-0.2,1-0.3c0.3-0.2,0.6-0.4,0.9-0.6c0.5-0.5,0.9-1.1,1.1-1.8l0.1,0.2
						c-0.7,0-1.5,0.2-2,0.7C74.9,34.9,74.5,35.5,74.4,36.2z M74.4,36.2c0.1-0.8,0.4-1.5,1-2.1c0.6-0.5,1.4-0.8,2.2-0.8h0.2v0.1
						c-0.2,0.7-0.6,1.4-1.2,1.9c-0.3,0.2-0.7,0.4-1,0.6C75.1,36.2,74.7,36.2,74.4,36.2z"/>
				</g>
				<g>
					<path class="st9" d="M71.8,33.9c0.4,0.8,0.9,1.4,1.6,2C72.6,35.5,71.9,34.8,71.8,33.9z"/>
				</g>
				<g>
					<path class="st9" d="M77,34c-0.2,0.9-0.9,1.7-1.8,1.8C76,35.4,76.5,34.8,77,34z"/>
				</g>
			</g>
		</g>
	</g>
</g>
</svg>
