<?xml version="1.0" encoding="utf-8"?>
<!-- Generator: Adobe Illustrator 25.2.1, SVG Export Plug-In . SVG Version: 6.00 Build 0)  -->
<svg version="1.1" xmlns="http://www.w3.org/2000/svg" xmlns:xlink="http://www.w3.org/1999/xlink" x="0px" y="0px"
	 viewBox="0 0 90 73" style="enable-background:new 0 0 90 73;" xml:space="preserve">
<style type="text/css">
	.st0{display:none;}
	.st1{display:inline;fill:#D8E3FF;}
	.st2{display:inline;fill:#231F20;}
	.st3{fill:#D8E3FF;}
	.st4{fill:#233A8E;stroke:#233A8E;stroke-width:0.5;stroke-miterlimit:10;}
	.st5{fill:#233A8E;}
</style>
<g id="Capa_1" class="st0">
	<circle class="st1" cx="52.8" cy="36.5" r="36.5"/>
	<path class="st2" d="M2.7,12c2.2,0.2,4.4,0.7,6.5,2.1c0.5,0.4,1,0.7,1.5,1.2c0.4,0.5,0.9,1,1.3,1.5c0.4,0.5,0.7,0.9,1,1.4
		c5.5,0.4,10.9,1.1,16.3,2.4c3.8,0.8,7.5,2,11.2,3.4c3.2,1.3,6.5,2.9,9.5,5c-9.1-10-18.9-13.6-23.6-15.2C16.3,10.3,7.2,10.8,0.7,12
		C1.3,12,2,12,2.7,12z"/>
	<path class="st2" d="M28.9,23.8c-3.7-0.9-7.4-1.5-11.1-2.1c-0.9-0.1-1.8-0.3-2.7-0.4c1.1,1.8,2.1,3.6,3,5.5
		c0.2,0.4,0.4,0.8,0.6,1.2c4.9,0.4,9.8,1,14.6,2.1l2.8,0.7l1.4,0.4l1.4,0.4l2.7,0.9c0.9,0.3,1.8,0.7,2.7,1.1c3.6,1.5,7.1,3.4,10.4,6
		c2.7,2.1,5.2,4.7,7.1,7.9c-1.1-2.7-2.5-5.5-4.1-8.2c-2.1-3-4.7-5.4-7.4-7.3c-3.2-2.2-6.7-3.9-10.3-5.1
		C36.3,25.7,32.6,24.6,28.9,23.8z"/>
	<path class="st2" d="M53.6,41.9c-3.2-2.2-6.6-4-10.1-5.3l-2.6-1l-2.7-0.8l-1.3-0.4l-1.4-0.3l-2.7-0.7c-3.6-0.8-7.3-1.5-11-1.9
		c-0.6-0.1-1.2-0.2-1.8-0.2c0.4,1,0.9,1.8,1.4,2.6c1.3,1.9,3,3.3,4.8,4.2c0.9,0.5,1.9,0.8,2.9,1.1l3.2,0.9l12.6,3.7l6.3,1.9
		c2.2,0.8,4.2,2.1,6.1,3.8c3.6,3.2,6.3,7.5,8.6,12.1c-0.8-3.9-2.1-7.5-4-10.7C59.7,47,56.8,44.2,53.6,41.9z"/>
</g>
<g id="Capa_2">
	<g>
		<circle class="st3" cx="45" cy="36.5" r="36.5"/>
		<g>
			<path class="st4" d="M41.3,30.9l-3.9-2.5c-0.8-0.5-0.8-1.3-0.8-1.4V16.6c0.4-0.2,0.8-0.6,0.8-1.1c0-0.6-0.5-1.1-1.1-1.1
				c-0.6,0-1.1,0.5-1.1,1.1c0,0.6,0.4,1,0.9,1.1v8c-0.3-0.3-0.6-0.5-0.7-0.5l-3.7-2.1c-0.7-0.4-0.7-1.1-0.7-1.2v-3.3h-0.1
				c0.3-0.1,0.6-0.4,0.6-0.8c0-0.4-0.4-0.8-0.8-0.8c-0.4,0-0.8,0.4-0.8,0.8c0,0.4,0.2,0.7,0.6,0.8h0V21c0,0,0,1,1,1.6l3.8,2.1l0,0
				c0,0,0.8,0.3,0.9,1.7v0.1h0v0.6c0,0,0,1.2,1.1,1.9l4,2.5l0,0c0,0,0.9,0.4,0.9,2v9.2c-0.3-0.4-0.6-0.5-0.7-0.6l-3.7-2.1
				c-0.6-0.3-0.7-0.9-0.7-1.1h0V39c0-0.1,0-0.3,0-0.4v-6.8c0.3-0.1,0.5-0.4,0.5-0.7c0-0.4-0.4-0.8-0.8-0.8c-0.4,0-0.8,0.4-0.8,0.8
				c0,0.3,0.2,0.6,0.5,0.7v5.5c-0.3-0.3-0.5-0.4-0.6-0.5l-3.7-2.1c-0.7-0.4-0.7-1.1-0.7-1.2v-5.1c0.3-0.1,0.6-0.4,0.6-0.8
				c0-0.4-0.4-0.8-0.8-0.8c-0.4,0-0.8,0.4-0.8,0.8c0,0.3,0.2,0.6,0.5,0.7v5.1c0,0,0,1,1,1.6l3.8,2.1l0,0c0,0,0.7,0.3,0.8,1.3V39
				c0,0,0,1,1,1.6l3.8,2.1l0,0c0,0,0.8,0.3,0.9,1.7v0.1v13.7c0,0,0,0.7-0.7,1.2l-3.7,2.1c-0.2,0.1-1.1,0.5-1.2,2
				c-0.4,0.1-0.6,0.4-0.6,0.8c0,0.4,0.4,0.8,0.8,0.8c0.4,0,0.8-0.4,0.8-0.8c0-0.3-0.2-0.6-0.4-0.7c0.1-1.2,0.8-1.5,0.9-1.5l0,0
				l3.8-2.1c1-0.6,1-1.6,1-1.6l0.1-24.7C42.5,31.6,41.5,31,41.3,30.9z M30.1,16.9c0-0.3,0.2-0.5,0.5-0.5c0.3,0,0.5,0.2,0.5,0.5
				c0,0.3-0.2,0.5-0.5,0.5C30.3,17.4,30.1,17.2,30.1,16.9z M35.5,15.6c0-0.4,0.3-0.7,0.7-0.7c0.4,0,0.7,0.3,0.7,0.7
				s-0.3,0.7-0.7,0.7C35.8,16.2,35.5,15.9,35.5,15.6z M30.5,27.7c0-0.3,0.2-0.5,0.5-0.5s0.5,0.2,0.5,0.5c0,0.3-0.2,0.5-0.5,0.5
				S30.5,28,30.5,27.7z M36.1,31c0-0.3,0.2-0.5,0.5-0.5c0.3,0,0.5,0.2,0.5,0.5c0,0.3-0.2,0.5-0.5,0.5C36.3,31.5,36.1,31.3,36.1,31z
				 M36.9,64.2c0,0.3-0.2,0.5-0.5,0.5S36,64.4,36,64.2c0-0.3,0.2-0.5,0.5-0.5S36.9,63.9,36.9,64.2z"/>
			<path class="st4" d="M49,32L49,32l4-2.5c1.1-0.7,1.1-1.9,1.1-1.9v-0.6h0v-0.1c0-1.4,0.8-1.7,0.9-1.7l0,0l3.8-2.1
				c1-0.6,1-1.6,1-1.6v-3.3c0.3-0.1,0.5-0.4,0.5-0.7c0-0.4-0.4-0.8-0.8-0.8c-0.4,0-0.8,0.4-0.8,0.8c0,0.4,0.3,0.7,0.6,0.8v3.2
				c0,0,0,0.7-0.7,1.2l-3.7,2.1c-0.1,0-0.4,0.2-0.7,0.5v-8c0.5-0.1,0.9-0.6,0.9-1.1c0-0.6-0.5-1.1-1.1-1.1c-0.6,0-1.1,0.5-1.1,1.1
				c0,0.5,0.3,0.9,0.8,1.1v10.4c0,0,0,0.9-0.8,1.4l-3.9,2.5c-0.2,0.1-1.2,0.6-1.3,2.6l0.1,24.7c0,0,0,1,1,1.6l3.8,2.1l0,0
				c0,0,0.8,0.3,0.9,1.6c-0.3,0.1-0.5,0.4-0.5,0.7c0,0.4,0.4,0.8,0.8,0.8s0.8-0.4,0.8-0.8c0-0.4-0.2-0.7-0.6-0.8
				c-0.1-1.5-1-2-1.2-2.1l-3.7-2.1c-0.7-0.4-0.7-1.1-0.7-1.2l0-13.7v-0.1c0-1.4,0.8-1.7,0.9-1.7l0,0l3.8-2.1c1-0.6,1-1.6,1-1.6v-0.4
				c0.1-1,0.8-1.3,0.8-1.3l0,0l3.8-2.1c1-0.6,1-1.6,1-1.6v-5.1c0.3-0.1,0.6-0.4,0.6-0.8c0-0.4-0.4-0.8-0.8-0.8
				c-0.4,0-0.8,0.4-0.8,0.8c0,0.3,0.2,0.6,0.5,0.7V34c0,0,0,0.7-0.7,1.2l-3.7,2.1c-0.1,0-0.4,0.2-0.6,0.5v-5.5
				c0.3-0.1,0.5-0.4,0.5-0.7c0-0.4-0.4-0.8-0.8-0.8c-0.4,0-0.8,0.4-0.8,0.8c0,0.4,0.2,0.6,0.5,0.8V39c0,0.1,0,0.3,0,0.4v0.1h0
				c0,0.2-0.1,0.7-0.7,1.1l-3.7,2.1c-0.1,0-0.4,0.2-0.7,0.6V34C48.1,32.4,49,32,49,32z M59,17.5c0-0.3,0.2-0.5,0.5-0.5
				s0.5,0.2,0.5,0.5c0,0.3-0.2,0.5-0.5,0.5S59,17.7,59,17.5z M53.2,16.1c0-0.4,0.3-0.7,0.7-0.7c0.4,0,0.7,0.3,0.7,0.7
				c0,0.4-0.3,0.7-0.7,0.7C53.5,16.8,53.2,16.5,53.2,16.1z M54,64.7c0,0.3-0.2,0.5-0.5,0.5s-0.5-0.2-0.5-0.5c0-0.3,0.2-0.5,0.5-0.5
				S54,64.5,54,64.7z M58.8,28.2c0-0.3,0.2-0.5,0.5-0.5c0.3,0,0.5,0.2,0.5,0.5c0,0.3-0.2,0.5-0.5,0.5C59,28.6,58.8,28.4,58.8,28.2z
				 M53.1,31.5c0-0.3,0.2-0.5,0.5-0.5c0.3,0,0.5,0.2,0.5,0.5c0,0.3-0.2,0.5-0.5,0.5C53.3,32,53.1,31.8,53.1,31.5z"/>
			<path class="st4" d="M45.4,64.7l0-37.7c0.2-0.8,0.6-0.9,0.7-1l0,0l3.1-1.7C49.9,23.9,50,23,50,23v-2.4c0.4-0.1,0.7-0.5,0.7-0.9
				c0-0.5-0.4-1-1-1c-0.5,0-1,0.4-1,1c0,0.5,0.3,0.9,0.8,0.9V23c0,0,0,0.6-0.6,0.9l-3,1.7c-0.1,0-0.3,0.1-0.5,0.4l0-15.3
				c0.4-0.2,0.7-0.6,0.7-1.1c0-0.6-0.5-1.1-1.1-1.1c-0.6,0-1.1,0.5-1.1,1.1c0,0.6,0.4,1,0.9,1.1V26c-0.2-0.3-0.4-0.4-0.5-0.4l-3-1.7
				c-0.6-0.3-0.6-0.9-0.6-0.9v-2.3c0.4-0.1,0.8-0.5,0.8-0.9c0-0.5-0.4-1-1-1c-0.5,0-1,0.4-1,1c0,0.4,0.3,0.8,0.7,0.9V23
				c0,0,0,0.9,0.8,1.3l3.1,1.7l0,0c0,0,0.6,0.2,0.7,1.1v37.6c-0.5,0.1-0.9,0.6-0.9,1.1c0,0.6,0.5,1.1,1.1,1.1c0.6,0,1.1-0.5,1.1-1.1
				C46.2,65.3,45.9,64.8,45.4,64.7z M49,19.7c0-0.3,0.3-0.6,0.6-0.6c0.3,0,0.6,0.3,0.6,0.6s-0.3,0.6-0.6,0.6
				C49.3,20.4,49,20.1,49,19.7z M39.9,19.7c0-0.3,0.3-0.6,0.6-0.6s0.6,0.3,0.6,0.6c0,0.3-0.3,0.6-0.6,0.6S39.9,20.1,39.9,19.7z
				 M44.3,9.7C44.3,9.3,44.6,9,45,9c0.4,0,0.7,0.3,0.7,0.7c0,0.4-0.3,0.7-0.7,0.7C44.6,10.4,44.3,10.1,44.3,9.7z M45.1,66.5
				c-0.4,0-0.7-0.3-0.7-0.7s0.3-0.7,0.7-0.7c0.4,0,0.7,0.3,0.7,0.7S45.5,66.5,45.1,66.5z"/>
			<g>
				<g>
					<path class="st5" d="M30.6,16.7c-0.1-0.4-0.2-0.7-0.4-1c-0.2-0.3-0.4-0.6-0.7-0.9c-0.5-0.5-1.2-0.8-1.9-0.9l0.1-0.1
						c0,0.7,0.3,1.5,0.8,2C29.1,16.2,29.8,16.6,30.6,16.7z M30.6,16.7c-0.8,0-1.5-0.3-2.1-0.8c-0.6-0.5-0.9-1.3-0.9-2.1l0-0.2l0.2,0
						c0.8,0.1,1.5,0.5,2,1c0.3,0.3,0.4,0.6,0.6,0.9C30.4,15.9,30.5,16.3,30.6,16.7z"/>
				</g>
				<g>
					<path class="st5" d="M30.6,16.7c0.4-0.1,0.7-0.2,1-0.3c0.3-0.2,0.6-0.4,0.9-0.6c0.5-0.5,0.9-1.1,1.1-1.8l0.1,0.2
						c-0.7,0-1.5,0.2-2,0.7C31.1,15.2,30.7,15.9,30.6,16.7z M30.6,16.7c0.1-0.8,0.4-1.5,1-2.1c0.6-0.5,1.4-0.8,2.2-0.8l0.2,0l0,0.1
						c-0.2,0.7-0.6,1.4-1.2,1.9c-0.3,0.2-0.7,0.4-1,0.6C31.3,16.6,30.9,16.6,30.6,16.7z"/>
				</g>
				<g>
					<path class="st5" d="M28,14.2c0.4,0.8,0.9,1.4,1.6,2C28.8,16,28.1,15.1,28,14.2z"/>
				</g>
				<g>
					<path class="st5" d="M33.2,14.4c-0.2,0.9-0.9,1.7-1.8,1.8C32.2,15.7,32.7,15.1,33.2,14.4z"/>
				</g>
			</g>
			<g>
				<g>
					<path class="st5" d="M30.8,27.3c-0.1-0.4-0.2-0.7-0.4-1c-0.2-0.3-0.4-0.6-0.7-0.9c-0.5-0.5-1.2-0.8-1.9-0.9l0.1-0.1
						c0,0.7,0.3,1.5,0.8,2C29.4,26.8,30.1,27.2,30.8,27.3z M30.8,27.3c-0.8,0-1.5-0.3-2.1-0.8c-0.6-0.5-0.9-1.3-0.9-2.1l0-0.2l0.2,0
						c0.8,0.1,1.5,0.5,2,1c0.3,0.3,0.4,0.6,0.6,0.9C30.7,26.5,30.8,26.9,30.8,27.3z"/>
				</g>
				<g>
					<path class="st5" d="M30.8,27.3c0.4-0.1,0.7-0.2,1-0.3c0.3-0.2,0.6-0.4,0.9-0.6c0.5-0.5,0.9-1.1,1.1-1.8l0.1,0.2
						c-0.7,0-1.5,0.2-2,0.7C31.4,25.8,31,26.5,30.8,27.3z M30.8,27.3c0.1-0.8,0.4-1.5,1-2.1c0.6-0.5,1.4-0.8,2.2-0.8l0.2,0l0,0.1
						c-0.2,0.7-0.6,1.4-1.2,1.9c-0.3,0.2-0.7,0.4-1,0.6C31.6,27.2,31.2,27.3,30.8,27.3z"/>
				</g>
				<g>
					<path class="st5" d="M28.3,24.9c0.4,0.8,0.9,1.4,1.6,2C29.1,26.6,28.4,25.7,28.3,24.9z"/>
				</g>
				<g>
					<path class="st5" d="M33.5,25c-0.2,0.9-0.9,1.7-1.8,1.8C32.4,26.3,33,25.7,33.5,25z"/>
				</g>
			</g>
			<g>
				<g>
					<path class="st5" d="M45,9c-0.1-0.4-0.2-0.7-0.4-1c-0.2-0.3-0.4-0.6-0.7-0.9c-0.5-0.5-1.2-0.8-1.9-0.9l0.1-0.1
						c0,0.7,0.3,1.5,0.8,2C43.5,8.6,44.2,8.9,45,9z M45,9c-0.8,0-1.5-0.3-2.1-0.8c-0.6-0.5-0.9-1.3-0.9-2.1l0-0.2l0.2,0
						c0.8,0.1,1.5,0.5,2,1c0.3,0.3,0.4,0.6,0.6,0.9C44.8,8.3,44.9,8.7,45,9z"/>
				</g>
				<g>
					<path class="st5" d="M45,9c0.4-0.1,0.7-0.2,1-0.3c0.3-0.2,0.6-0.4,0.9-0.6C47.5,7.6,47.9,7,48,6.3l0.1,0.2
						c-0.7,0-1.5,0.2-2,0.7C45.5,7.6,45.1,8.3,45,9z M45,9c0.1-0.8,0.4-1.5,1-2.1c0.6-0.5,1.4-0.8,2.2-0.8l0.2,0l0,0.1
						c-0.2,0.7-0.6,1.4-1.2,1.9c-0.3,0.2-0.7,0.4-1,0.6C45.7,8.9,45.4,9,45,9z"/>
				</g>
				<g>
					<path class="st5" d="M42.4,6.6c0.4,0.8,0.9,1.4,1.6,2C43.2,8.3,42.5,7.5,42.4,6.6z"/>
				</g>
				<g>
					<path class="st5" d="M47.7,6.7c-0.2,0.9-0.9,1.7-1.8,1.8C46.6,8.1,47.2,7.5,47.7,6.7z"/>
				</g>
			</g>
			<g>
				<g>
					<path class="st5" d="M53.8,15.2c-0.1-0.4-0.2-0.7-0.4-1c-0.2-0.3-0.4-0.6-0.7-0.9c-0.5-0.5-1.2-0.8-1.9-0.9l0.1-0.1
						c0,0.7,0.3,1.5,0.8,2C52.3,14.7,53,15.1,53.8,15.2z M53.8,15.2c-0.8,0-1.5-0.3-2.1-0.8c-0.6-0.5-0.9-1.3-0.9-2.1l0-0.2l0.2,0
						c0.8,0.1,1.5,0.5,2,1c0.3,0.3,0.4,0.6,0.6,0.9C53.6,14.5,53.7,14.8,53.8,15.2z"/>
				</g>
				<g>
					<path class="st5" d="M53.8,15.2c0.4-0.1,0.7-0.2,1-0.3c0.3-0.2,0.6-0.4,0.9-0.6c0.5-0.5,0.9-1.1,1.1-1.8l0.1,0.2
						c-0.7,0-1.5,0.2-2,0.7C54.3,13.8,53.9,14.4,53.8,15.2z M53.8,15.2c0.1-0.8,0.4-1.5,1-2.1c0.6-0.5,1.4-0.8,2.2-0.8l0.2,0l0,0.1
						c-0.2,0.7-0.6,1.4-1.2,1.9c-0.3,0.2-0.7,0.4-1,0.6C54.5,15.1,54.2,15.2,53.8,15.2z"/>
				</g>
				<g>
					<path class="st5" d="M51.2,12.8c0.4,0.8,0.9,1.4,1.6,2C52,14.5,51.3,13.7,51.2,12.8z"/>
				</g>
				<g>
					<path class="st5" d="M56.5,12.9c-0.2,0.9-0.9,1.7-1.8,1.8C55.4,14.2,56,13.7,56.5,12.9z"/>
				</g>
			</g>
			<g>
				<g>
					<path class="st5" d="M59.2,27.9c-0.1-0.4-0.2-0.7-0.4-1c-0.2-0.3-0.4-0.6-0.7-0.9c-0.5-0.5-1.2-0.8-1.9-0.9l0.1-0.1
						c0,0.7,0.3,1.5,0.8,2C57.8,27.5,58.5,27.8,59.2,27.9z M59.2,27.9c-0.8,0-1.5-0.3-2.1-0.8c-0.6-0.5-0.9-1.3-0.9-2.1l0-0.2l0.2,0
						c0.8,0.1,1.5,0.5,2,1c0.3,0.3,0.4,0.6,0.6,0.9C59.1,27.2,59.2,27.5,59.2,27.9z"/>
				</g>
				<g>
					<path class="st5" d="M59.2,27.9c0.4-0.1,0.7-0.2,1-0.3c0.3-0.2,0.6-0.4,0.9-0.6c0.5-0.5,0.9-1.1,1.1-1.8l0.1,0.2
						c-0.7,0-1.5,0.2-2,0.7C59.8,26.5,59.4,27.2,59.2,27.9z M59.2,27.9c0.1-0.8,0.4-1.5,1-2.1c0.6-0.5,1.4-0.8,2.2-0.8l0.2,0l0,0.1
						c-0.2,0.7-0.6,1.4-1.2,1.9c-0.3,0.2-0.7,0.4-1,0.6C60,27.8,59.6,27.9,59.2,27.9z"/>
				</g>
				<g>
					<path class="st5" d="M56.7,25.5c0.4,0.8,0.9,1.4,1.6,2C57.5,27.2,56.8,26.4,56.7,25.5z"/>
				</g>
				<g>
					<path class="st5" d="M61.9,25.6c-0.2,0.9-0.9,1.7-1.8,1.8C60.8,26.9,61.4,26.4,61.9,25.6z"/>
				</g>
			</g>
		</g>
	</g>
</g>
</svg>
